<?xml version="1.0" encoding="UTF-8" standalone="no"?>
<!-- Created with Inkscape (http://www.inkscape.org/) -->

<svg
   width="5.6949716mm"
   height="5.5068059mm"
   viewBox="0 0 5.6949715 5.5068057"
   version="1.1"
   id="svg5"
   inkscape:version="1.1.1 (1:1.1+202109281949+c3084ef5ed)"
   sodipodi:docname="github.svg"
   xmlns:inkscape="http://www.inkscape.org/namespaces/inkscape"
   xmlns:sodipodi="http://sodipodi.sourceforge.net/DTD/sodipodi-0.dtd"
   xmlns="http://www.w3.org/2000/svg"
   xmlns:svg="http://www.w3.org/2000/svg">
  <sodipodi:namedview
     id="namedview7"
     pagecolor="#ffffff"
     bordercolor="#666666"
     borderopacity="1.0"
     inkscape:pageshadow="2"
     inkscape:pageopacity="0.0"
     inkscape:pagecheckerboard="0"
     inkscape:document-units="mm"
     showgrid="false"
     inkscape:zoom="15.017489"
     inkscape:cx="15.914778"
     inkscape:cy="10.021649"
     inkscape:window-width="1860"
     inkscape:window-height="1016"
     inkscape:window-x="60"
     inkscape:window-y="27"
     inkscape:window-maximized="1"
     inkscape:current-layer="layer1" />
  <defs
     id="defs2" />
  <g
     inkscape:label="Layer 1"
     inkscape:groupmode="layer"
     id="layer1"
     transform="translate(22.335112,-104.99481)">
    <path
       style="fill:#000000;stroke-width:0.0113393"
       d="m -20.323592,110.02227 c -0.468721,-0.17424 -0.877072,-0.49727 -1.157083,-0.9153 -0.09035,-0.13488 -0.225455,-0.41223 -0.275237,-0.56502 -0.157072,-0.48205 -0.156688,-0.98854 0.0011,-1.4681 0.294972,-0.89641 1.092264,-1.52901 2.043992,-1.62178 0.701641,-0.0684 1.415821,0.18942 1.919229,0.69283 0.493545,0.49355 0.747635,1.19847 0.678629,1.88275 -0.01638,0.16239 -0.06013,0.3724 -0.107768,0.5172 -0.04966,0.15098 -0.185503,0.42893 -0.274719,0.56212 -0.239183,0.35708 -0.555082,0.63275 -0.938052,0.81858 -0.271846,0.1319 -0.371982,0.15446 -0.429727,0.0968 -0.02318,-0.0232 -0.02401,-0.0359 -0.0298,-0.45726 -0.0057,-0.4164 -0.007,-0.43635 -0.0322,-0.50716 -0.01444,-0.0405 -0.04633,-0.10315 -0.07086,-0.13916 -0.02972,-0.0436 -0.03978,-0.0669 -0.03016,-0.0696 0.008,-0.003 0.06802,-0.0128 0.1335,-0.0234 0.230742,-0.0373 0.45228,-0.13028 0.591684,-0.24842 0.155169,-0.13149 0.267957,-0.34279 0.309395,-0.57962 0.06549,-0.37428 0.0086,-0.66941 -0.172727,-0.89537 l -0.04401,-0.0549 0.02069,-0.0746 c 0.02835,-0.10224 0.02771,-0.28329 -0.0014,-0.40486 -0.03448,-0.14381 -0.04008,-0.15217 -0.102042,-0.15217 -0.115564,0 -0.298574,0.0666 -0.480791,0.17502 l -0.120439,0.0716 -0.08804,-0.0203 c -0.178801,-0.0412 -0.269309,-0.0501 -0.507599,-0.0501 -0.23829,0 -0.328797,0.009 -0.5076,0.0501 l -0.08804,0.0203 -0.120439,-0.0716 c -0.182217,-0.1084 -0.365227,-0.17502 -0.480792,-0.17502 -0.06196,0 -0.06757,0.008 -0.102042,0.15217 -0.02915,0.12157 -0.02979,0.30262 -0.0014,0.40486 l 0.02069,0.0746 -0.044,0.0549 c -0.145697,0.1816 -0.213053,0.41278 -0.197129,0.67658 0.02546,0.4218 0.159838,0.69228 0.432285,0.87013 0.129759,0.0847 0.319394,0.15244 0.510204,0.18224 0.146979,0.023 0.137937,0.0149 0.09018,0.0799 -0.04162,0.0567 -0.09516,0.18748 -0.09561,0.23353 -5.9e-4,0.0597 -0.271739,0.10462 -0.403414,0.0668 -0.121838,-0.035 -0.208289,-0.10512 -0.293029,-0.23759 -0.05402,-0.0845 -0.129331,-0.15509 -0.212733,-0.19954 -0.138545,-0.0738 -0.310347,-0.0494 -0.244489,0.0347 0.0076,0.01 0.04203,0.0384 0.07652,0.0637 0.107499,0.079 0.173526,0.16185 0.243346,0.30543 0.07421,0.15262 0.134715,0.22145 0.24249,0.27585 0.112448,0.0568 0.199643,0.0721 0.369951,0.0648 0.08108,-0.003 0.161445,-0.01 0.178596,-0.0138 l 0.03119,-0.008 v 0.2402 c 0,0.14305 -0.0047,0.24902 -0.01168,0.26201 -0.01532,0.0287 -0.0698,0.0562 -0.10966,0.0555 -0.01746,-2.5e-4 -0.07096,-0.0151 -0.118881,-0.0329 z"
       id="path1341" />
  </g>
</svg>
