<?xml version="1.0" encoding="UTF-8" standalone="no"?>
<!-- Created with Inkscape (http://www.inkscape.org/) -->

<svg
   width="0.95280892mm"
   height="0.95280892mm"
   viewBox="0 0 0.95280892 0.95280892"
   version="1.1"
   id="svg5"
   inkscape:version="1.1.1 (1:1.1+202109281949+c3084ef5ed)"
   sodipodi:docname="icon.svg"
   xmlns:inkscape="http://www.inkscape.org/namespaces/inkscape"
   xmlns:sodipodi="http://sodipodi.sourceforge.net/DTD/sodipodi-0.dtd"
   xmlns="http://www.w3.org/2000/svg"
   xmlns:svg="http://www.w3.org/2000/svg">
  <sodipodi:namedview
     id="namedview7"
     pagecolor="#ffffff"
     bordercolor="#666666"
     borderopacity="1.0"
     inkscape:pageshadow="2"
     inkscape:pageopacity="0.0"
     inkscape:pagecheckerboard="0"
     inkscape:document-units="mm"
     showgrid="false"
     inkscape:zoom="120.1399"
     inkscape:cx="2.0892309"
     inkscape:cy="2.1433345"
     inkscape:window-width="1860"
     inkscape:window-height="1016"
     inkscape:window-x="60"
     inkscape:window-y="27"
     inkscape:window-maximized="1"
     inkscape:current-layer="layer1" />
  <defs
     id="defs2" />
  <g
     inkscape:label="Layer 1"
     inkscape:groupmode="layer"
     id="layer1"
     transform="translate(-99.070844,-100.83696)">
    <circle
       style="fill:#800033;stroke:none;stroke-width:0.252781"
       id="path866"
       cx="99.547249"
       cy="101.31336"
       r="0.47573975" />
    <path
       style="fill:#ffffff;stroke-width:0.0029558"
       d="m 99.464802,101.61208 -0.04469,-0.0117 0.0051,-0.0196 c 0.02726,-0.10458 0.149025,-0.55502 0.150428,-0.55643 10e-4,-8.7e-4 0.02194,0.003 0.04652,0.01 l 0.04469,0.0118 -0.0051,0.0196 c -0.02725,0.10458 -0.149026,0.55502 -0.150429,0.55643 -10e-4,8.7e-4 -0.02194,-0.003 -0.04652,-0.01 z m -0.235393,-0.18545 c -0.05163,-0.0535 -0.09464,-0.0992 -0.09558,-0.10165 -0.0011,-0.003 0.0288,-0.036 0.09347,-0.10291 0.05235,-0.0541 0.09669,-0.0988 0.09853,-0.0993 0.0018,-4.3e-4 0.01586,0.0118 0.03115,0.0272 l 0.0278,0.0279 -0.06918,0.0714 c -0.03805,0.0392 -0.06918,0.0725 -0.06918,0.0739 0,8.7e-4 0.03113,0.0347 0.06918,0.0739 l 0.06918,0.0714 -0.02774,0.0279 c -0.01526,0.0153 -0.0291,0.0278 -0.03076,0.0277 -0.0017,-1.1e-4 -0.04526,-0.0439 -0.09688,-0.0974 z m 0.500575,0.0697 -0.0278,-0.0279 0.06918,-0.0713 c 0.03805,-0.0392 0.06918,-0.0725 0.06918,-0.074 0,-0.002 -0.0311,-0.0347 -0.06918,-0.074 l -0.06918,-0.0713 0.0278,-0.0279 c 0.01529,-0.0154 0.02929,-0.0276 0.0311,-0.0272 0.0051,8.7e-4 0.193249,0.19645 0.193249,0.20033 0,0.004 -0.188351,0.19913 -0.193249,0.20033 -0.0017,4.3e-4 -0.01582,-0.0118 -0.0311,-0.0272 z"
       id="path1006" />
  </g>
</svg>
