<?xml version="1.0" encoding="UTF-8" standalone="no"?>
<!-- Created with Inkscape (http://www.inkscape.org/) -->

<svg
   width="12.164308mm"
   height="12.183676mm"
   viewBox="0 0 12.164307 12.183675"
   version="1.1"
   id="svg5"
   inkscape:version="1.1.1 (1:1.1+202109281949+c3084ef5ed)"
   sodipodi:docname="instagram.svg"
   xmlns:inkscape="http://www.inkscape.org/namespaces/inkscape"
   xmlns:sodipodi="http://sodipodi.sourceforge.net/DTD/sodipodi-0.dtd"
   xmlns="http://www.w3.org/2000/svg"
   xmlns:svg="http://www.w3.org/2000/svg">
  <sodipodi:namedview
     id="namedview7"
     pagecolor="#ffffff"
     bordercolor="#666666"
     borderopacity="1.0"
     inkscape:pageshadow="2"
     inkscape:pageopacity="0.0"
     inkscape:pagecheckerboard="0"
     inkscape:document-units="mm"
     showgrid="false"
     inkscape:zoom="7.5087444"
     inkscape:cx="22.373914"
     inkscape:cy="34.160172"
     inkscape:window-width="1860"
     inkscape:window-height="1016"
     inkscape:window-x="60"
     inkscape:window-y="27"
     inkscape:window-maximized="1"
     inkscape:current-layer="layer1" />
  <defs
     id="defs2" />
  <g
     inkscape:label="Layer 1"
     inkscape:groupmode="layer"
     id="layer1"
     transform="translate(25.480377,-101.84509)">
    <path
       style="fill:#000000;stroke-width:0.00521113"
       d="m -21.654138,113.26874 c -0.500289,-0.003 -0.57621,-0.005 -0.755616,-0.0208 -0.519634,-0.0444 -0.899358,-0.17377 -1.257698,-0.42839 -0.457297,-0.32493 -0.774179,-0.81784 -0.888596,-1.38222 -0.0289,-0.14254 -0.05399,-0.33496 -0.06285,-0.48203 -0.0095,-0.15774 -0.01108,-0.56489 -0.01162,-3.01204 -6.7e-4,-2.77614 1.18e-4,-2.8419 0.03508,-3.10584 0.06874,-0.51906 0.233065,-0.90869 0.530661,-1.25826 0.06003,-0.0705 0.212045,-0.22032 0.279784,-0.27571 0.279818,-0.22883 0.63383,-0.39307 1.005994,-0.46674 0.182232,-0.0361 0.362913,-0.056 0.577692,-0.0638 0.243354,-0.009 5.26345,-0.009 5.547264,-3.9e-4 0.307211,0.009 0.40662,0.0181 0.616957,0.0535 0.431249,0.0727 0.82064,0.25481 1.131382,0.52913 0.06335,0.0559 0.181514,0.17486 0.230012,0.2315 0.115428,0.13482 0.216236,0.29251 0.303303,0.47444 0.11106,0.23206 0.174781,0.44755 0.214132,0.72413 0.03007,0.21133 0.03006,0.21109 0.03388,0.93019 0.0053,0.98994 0.0055,3.62515 3.96e-4,4.51024 -0.0042,0.73347 -0.005,0.77916 -0.01539,0.87547 -0.02689,0.24939 -0.06253,0.42294 -0.125203,0.60971 -0.226115,0.67382 -0.734493,1.18608 -1.396783,1.40745 -0.188687,0.0631 -0.389133,0.10407 -0.620127,0.12685 -0.155362,0.0153 -0.228404,0.0191 -0.455974,0.0238 -0.260353,0.005 -4.103537,0.005 -4.916716,-3e-4 z m 3.20371,-1.37019 c 0.556707,-0.008 0.849538,-0.0241 1.07464,-0.058 0.303525,-0.0458 0.595599,-0.14437 0.830888,-0.28051 0.238269,-0.13786 0.477404,-0.36247 0.638269,-0.5995 0.215503,-0.31753 0.340445,-0.71474 0.377827,-1.20116 0.02196,-0.28579 0.0286,-0.57696 0.03225,-1.41483 0.0051,-1.16333 -0.0072,-1.82002 -0.04016,-2.1522 -0.04722,-0.47566 -0.189956,-0.8752 -0.423528,-1.18554 -0.116497,-0.15479 -0.288526,-0.32283 -0.444066,-0.43378 -0.265742,-0.18955 -0.625799,-0.3236 -1.01056,-0.37622 -0.338628,-0.0463 -0.954678,-0.0613 -2.282482,-0.0557 -1.29198,0.005 -1.592714,0.0236 -1.955535,0.118 -0.261468,0.068 -0.501251,0.17665 -0.698199,0.31632 -0.141857,0.10061 -0.293929,0.24485 -0.40853,0.3875 -0.26829,0.33396 -0.424193,0.77472 -0.465289,1.31545 -0.02582,0.33973 -0.03109,0.63332 -0.03117,1.73792 -7.9e-5,1.02098 0.0024,1.20831 0.02059,1.57376 0.02126,0.42672 0.07088,0.68989 0.185221,0.9823 0.103459,0.2646 0.238512,0.47072 0.442399,0.67521 0.201594,0.20218 0.401632,0.33577 0.657823,0.43929 0.302941,0.1224 0.590512,0.17654 1.0411,0.19597 0.06735,0.003 0.152948,0.007 0.190208,0.009 0.221484,0.011 1.697528,0.0156 2.268309,0.007 z m -2.007752,-0.7037 c -0.665224,-0.014 -0.918957,-0.0444 -1.180324,-0.14164 -0.175115,-0.0651 -0.2907,-0.13401 -0.422489,-0.2518 -0.195909,-0.1751 -0.325357,-0.39335 -0.39842,-0.67172 -0.05825,-0.22196 -0.07551,-0.39935 -0.09104,-0.93573 -0.0065,-0.225 -0.0065,-2.1153 -4e-5,-2.34763 0.01492,-0.53293 0.03274,-0.71604 0.0914,-0.93954 0.04936,-0.18805 0.138865,-0.37517 0.241057,-0.50394 0.03787,-0.0477 0.149605,-0.16159 0.199121,-0.20292 0.191445,-0.1598 0.441426,-0.26156 0.760828,-0.30973 0.275199,-0.0415 0.838102,-0.0549 2.102696,-0.05 1.057094,0.004 1.374581,0.0133 1.627683,0.0472 0.164766,0.0221 0.29628,0.0542 0.427053,0.1043 0.197087,0.0755 0.332326,0.16484 0.47822,0.31582 0.123084,0.12738 0.196902,0.24229 0.265424,0.4132 0.09064,0.22608 0.128197,0.44492 0.143072,0.83378 0.0031,0.0803 0.0068,0.15998 0.0083,0.17718 0.0063,0.0732 0.01105,1.33662 0.0072,1.90467 -0.0039,0.57531 -0.0064,0.69258 -0.0206,0.96667 -0.02123,0.40902 -0.100914,0.70744 -0.251796,0.943 -0.08353,0.13042 -0.23265,0.28137 -0.365576,0.37009 -0.180281,0.12032 -0.426888,0.20421 -0.703505,0.2393 -0.119746,0.0152 -0.217204,0.0216 -0.534142,0.0351 -0.161507,0.007 -2.096328,0.0104 -2.384098,0.004 z m 1.326236,-1.19544 c 0.390859,-0.0548 0.707757,-0.18946 1.00894,-0.42884 0.07302,-0.058 0.237227,-0.22224 0.295262,-0.29526 0.255114,-0.32098 0.401772,-0.68587 0.436753,-1.08667 0.008,-0.0912 0.0033,-0.33592 -0.0079,-0.41733 -0.03311,-0.24009 -0.09611,-0.44386 -0.201405,-0.65139 -0.279875,-0.55164 -0.803246,-0.94439 -1.409179,-1.05748 -0.114615,-0.0214 -0.176728,-0.0272 -0.320921,-0.0301 -0.23549,-0.005 -0.398527,0.0161 -0.609268,0.0776 -0.151924,0.0444 -0.333349,0.12415 -0.467768,0.20573 -0.228226,0.1385 -0.439795,0.3352 -0.593881,0.55215 -0.196196,0.27624 -0.313105,0.58252 -0.35681,0.93477 -0.0091,0.0732 -0.0091,0.36406 -6e-5,0.43774 0.04907,0.39859 0.194191,0.74188 0.442592,1.04695 0.06225,0.0764 0.209937,0.2225 0.28805,0.28485 0.302739,0.24165 0.657306,0.38951 1.029201,0.42918 0.02866,0.003 0.06032,0.007 0.07035,0.008 0.0475,0.005 0.339069,-0.002 0.396047,-0.01 z m -0.396047,-0.69337 c -0.289647,-0.0351 -0.550018,-0.16107 -0.757335,-0.36629 -0.248388,-0.24586 -0.383906,-0.57002 -0.383906,-0.9183 0,-0.20495 0.04326,-0.38897 0.135375,-0.57583 0.122611,-0.24874 0.33262,-0.45872 0.581158,-0.5811 0.188703,-0.0929 0.369467,-0.13544 0.575832,-0.13544 0.409742,0 0.785153,0.18741 1.03389,0.51611 0.0993,0.13123 0.177,0.29105 0.217093,0.44654 0.03235,0.12546 0.03846,0.17785 0.03846,0.32972 0,0.11846 -0.0016,0.14738 -0.01136,0.20339 -0.02485,0.14281 -0.05701,0.24241 -0.118589,0.36723 -0.161985,0.32836 -0.44917,0.56946 -0.800605,0.67213 -0.07277,0.0213 -0.126043,0.0318 -0.212942,0.042 -0.07784,0.009 -0.221195,0.009 -0.297067,-1.1e-4 z m 2.337199,-2.90503 c 0.05417,-0.0137 0.137056,-0.0552 0.179648,-0.0901 0.09925,-0.0813 0.163142,-0.20679 0.170447,-0.33482 0.0077,-0.13409 -0.03996,-0.25754 -0.136609,-0.35418 -0.0939,-0.0939 -0.195691,-0.13541 -0.330737,-0.13488 -0.08451,3.4e-4 -0.129541,0.0107 -0.201783,0.0462 -0.121368,0.0597 -0.211559,0.17013 -0.246866,0.30214 -0.01629,0.0609 -0.01639,0.16561 -2.68e-4,0.22634 0.04932,0.18525 0.197351,0.31991 0.383934,0.34927 0.04494,0.007 0.133921,0.002 0.182188,-0.01 z"
       id="path2577" />
  </g>
</svg>
