<?xml version="1.0" encoding="UTF-8" standalone="no"?>
<!-- Created with Inkscape (http://www.inkscape.org/) -->

<svg
   width="6.5831561mm"
   height="7.204195mm"
   viewBox="0 0 6.5831561 7.204195"
   version="1.1"
   id="svg5"
   inkscape:version="1.1.1 (1:1.1+202109281949+c3084ef5ed)"
   sodipodi:docname="twitter.svg"
   xmlns:inkscape="http://www.inkscape.org/namespaces/inkscape"
   xmlns:sodipodi="http://sodipodi.sourceforge.net/DTD/sodipodi-0.dtd"
   xmlns="http://www.w3.org/2000/svg"
   xmlns:svg="http://www.w3.org/2000/svg">
  <sodipodi:namedview
     id="namedview7"
     pagecolor="#ffffff"
     bordercolor="#666666"
     borderopacity="1.0"
     inkscape:pageshadow="2"
     inkscape:pageopacity="0.0"
     inkscape:pagecheckerboard="0"
     inkscape:document-units="mm"
     showgrid="false"
     inkscape:zoom="21.237936"
     inkscape:cx="17.186228"
     inkscape:cy="14.007953"
     inkscape:window-width="1860"
     inkscape:window-height="1016"
     inkscape:window-x="60"
     inkscape:window-y="27"
     inkscape:window-maximized="1"
     inkscape:current-layer="layer1" />
  <defs
     id="defs2" />
  <g
     inkscape:label="Layer 1"
     inkscape:groupmode="layer"
     id="layer1"
     transform="translate(22.02656,-105.33397)">
    <path
       style="fill:#000000;fill-opacity:1;stroke-width:0.0248099"
       d="m -20.369919,111.30291 c -0.376518,-0.0591 -0.737678,-0.1794 -1.094832,-0.36461 l -0.229093,-0.11881 0.334935,-0.0171 c 0.246521,-0.0127 0.39388,-0.034 0.558226,-0.0814 0.255575,-0.0737 0.584576,-0.22352 0.747614,-0.34059 l 0.111617,-0.0802 -0.182942,-0.0389 c -0.414026,-0.0883 -0.747677,-0.35834 -0.900553,-0.72902 l -0.03979,-0.0965 0.104452,0.0167 c 0.110681,0.0177 0.395299,-0.005 0.395299,-0.0321 0,-0.009 -0.05861,-0.0366 -0.130253,-0.0618 -0.34809,-0.12313 -0.626737,-0.41751 -0.738988,-0.78073 -0.05045,-0.16323 -0.06493,-0.35092 -0.02707,-0.35092 0.01192,0 0.07052,0.0216 0.130253,0.0479 0.05973,0.0264 0.170001,0.0559 0.245051,0.0655 l 0.136455,0.0175 -0.113863,-0.10125 c -0.39499,-0.35129 -0.521503,-0.91424 -0.314711,-1.40039 0.02757,-0.0648 0.05155,-0.1178 0.05328,-0.11774 0.0017,5e-5 0.125956,0.12009 0.276057,0.26675 0.584609,0.5712 1.27674,0.89798 2.088993,0.98631 l 0.153811,0.0167 -0.01464,-0.17464 c -0.03021,-0.36039 0.09614,-0.70692 0.35068,-0.96179 0.246666,-0.247 0.512993,-0.35593 0.871451,-0.35646 0.310358,-4.5e-4 0.567292,0.0938 0.785514,0.28835 0.07804,0.0695 0.105248,0.0801 0.173671,0.067 0.115685,-0.022 0.407576,-0.12797 0.54879,-0.19912 0.06617,-0.0333 0.124127,-0.0567 0.128786,-0.0522 0.01794,0.0179 -0.09369,0.23286 -0.179217,0.34499 -0.04932,0.0647 -0.138125,0.15389 -0.197352,0.19827 -0.05922,0.0443 -0.10311,0.0853 -0.09751,0.0909 0.01637,0.0164 0.285236,-0.045 0.468288,-0.10682 0.09287,-0.0314 0.165448,-0.0475 0.161264,-0.0357 -0.02157,0.0606 -0.29291,0.35799 -0.429915,0.47133 l -0.156683,0.12961 -0.0019,0.23317 c -0.0052,0.65297 -0.21949,1.31737 -0.618925,1.91929 -0.182831,0.27552 -0.625042,0.71812 -0.899466,0.90024 -0.351028,0.23297 -0.720731,0.38991 -1.163265,0.49381 -0.238665,0.0561 -1.04381,0.0838 -1.293532,0.0446 z"
       id="path869" />
  </g>
</svg>
