<?xml version="1.0" encoding="UTF-8" standalone="no"?>
<!-- Created with Inkscape (http://www.inkscape.org/) -->

<svg
   width="15.710538mm"
   height="10.794714mm"
   viewBox="0 0 15.710538 10.794714"
   version="1.1"
   id="svg5"
   inkscape:version="1.1.1 (1:1.1+202109281949+c3084ef5ed)"
   sodipodi:docname="youtube.svg"
   xmlns:inkscape="http://www.inkscape.org/namespaces/inkscape"
   xmlns:sodipodi="http://sodipodi.sourceforge.net/DTD/sodipodi-0.dtd"
   xmlns="http://www.w3.org/2000/svg"
   xmlns:svg="http://www.w3.org/2000/svg">
  <sodipodi:namedview
     id="namedview7"
     pagecolor="#ffffff"
     bordercolor="#666666"
     borderopacity="1.0"
     inkscape:pageshadow="2"
     inkscape:pageopacity="0.0"
     inkscape:pagecheckerboard="0"
     inkscape:document-units="mm"
     showgrid="false"
     inkscape:zoom="5.309484"
     inkscape:cx="18.834222"
     inkscape:cy="28.533846"
     inkscape:window-width="1860"
     inkscape:window-height="1016"
     inkscape:window-x="60"
     inkscape:window-y="27"
     inkscape:window-maximized="1"
     inkscape:current-layer="layer1" />
  <defs
     id="defs2" />
  <g
     inkscape:label="Layer 1"
     inkscape:groupmode="layer"
     id="layer1"
     transform="translate(27.138676,-101.74921)">
    <path
       style="fill:#000000;stroke-width:0.00461242"
       d="m -19.960342,111.36731 c -1.80003,-0.0217 -3.247353,-0.10667 -3.854638,-0.22626 -0.21574,-0.0425 -0.425845,-0.14103 -0.604075,-0.28333 -0.250583,-0.20007 -0.432335,-0.48596 -0.5059,-0.79576 -0.148186,-0.62403 -0.232194,-1.60558 -0.232126,-2.7121 3.7e-5,-0.5818 0.01999,-1.09252 0.06235,-1.59589 0.04706,-0.55921 0.129572,-1.10101 0.198792,-1.30531 0.145781,-0.43028 0.484504,-0.76631 0.918861,-0.91157 0.09027,-0.0302 0.235627,-0.0578 0.480353,-0.0913 0.722757,-0.0989 1.801356,-0.15818 3.24483,-0.17839 0.423772,-0.006 1.625318,-0.003 2.011011,0.005 1.570905,0.032 2.662022,0.0945 3.190865,0.18275 0.197386,0.0329 0.402791,0.10375 0.555129,0.19133 0.315969,0.18167 0.550992,0.47256 0.663108,0.82074 0.05934,0.18429 0.138099,0.62453 0.184447,1.031 0.06678,0.5857 0.09361,1.16058 0.08891,1.90492 -0.0024,0.38362 -0.0044,0.46775 -0.01703,0.7426 -0.03309,0.71761 -0.109727,1.38784 -0.216503,1.8934 -0.07116,0.33693 -0.269218,0.64077 -0.556934,0.85439 -0.128626,0.0955 -0.294116,0.17755 -0.44853,0.22235 -0.394936,0.11461 -1.465663,0.20216 -2.908425,0.23781 -0.596496,0.0148 -1.646278,0.0212 -2.254495,0.0139 z m 1.297421,-3.35771 c 0.660843,-0.37884 1.203162,-0.69022 1.205152,-0.69195 0.003,-0.003 -0.594149,-0.34628 -2.74685,-1.58051 l -0.275591,-0.15801 v 1.73612 1.73612 l 0.307878,-0.17649 c 0.169333,-0.0971 0.848568,-0.48644 1.509411,-0.86528 z"
       id="path3238" />
  </g>
</svg>
