<?xml version="1.0" encoding="UTF-8" standalone="no"?>
<!-- Created with Inkscape (http://www.inkscape.org/) -->

<svg
   width="87.813225mm"
   height="60.644615mm"
   viewBox="0 0 87.813224 60.644613"
   version="1.1"
   id="svg5"
   inkscape:version="1.1.1 (1:1.1+202109281949+c3084ef5ed)"
   sodipodi:docname="youtube.svg"
   xmlns:inkscape="http://www.inkscape.org/namespaces/inkscape"
   xmlns:sodipodi="http://sodipodi.sourceforge.net/DTD/sodipodi-0.dtd"
   xmlns="http://www.w3.org/2000/svg"
   xmlns:svg="http://www.w3.org/2000/svg">
  <sodipodi:namedview
     id="namedview7"
     pagecolor="#ffffff"
     bordercolor="#666666"
     borderopacity="1.0"
     inkscape:pageshadow="2"
     inkscape:pageopacity="0.0"
     inkscape:pagecheckerboard="0"
     inkscape:document-units="mm"
     showgrid="false"
     inkscape:zoom="1.327371"
     inkscape:cx="60.646194"
     inkscape:cy="137.48982"
     inkscape:window-width="1860"
     inkscape:window-height="1016"
     inkscape:window-x="60"
     inkscape:window-y="27"
     inkscape:window-maximized="1"
     inkscape:current-layer="layer1" />
  <defs
     id="defs2" />
  <g
     inkscape:label="Layer 1"
     inkscape:groupmode="layer"
     id="layer1"
     transform="translate(62.870449,-76.614738)">
    <path
       style="fill:#000000;stroke-width:0.0258547"
       d="m -22.723812,130.73901 c -10.089976,-0.12172 -18.202868,-0.59792 -21.606974,-1.26827 -1.209316,-0.23814 -2.387051,-0.79055 -3.386107,-1.58822 -1.404634,-1.12149 -2.423434,-2.72402 -2.835798,-4.46059 -0.830651,-3.49798 -1.301553,-8.99996 -1.30117,-15.20251 2.09e-4,-3.26126 0.112054,-6.1241 0.349494,-8.945697 0.263786,-3.134611 0.726308,-6.171657 1.114321,-7.316858 0.817167,-2.411893 2.715858,-4.295497 5.150622,-5.109722 0.505986,-0.16921 1.320795,-0.324072 2.692597,-0.511752 4.051376,-0.554277 10.097405,-0.886673 18.188724,-0.999972 2.37543,-0.03326 9.110636,-0.01732 11.272614,0.02667 8.8056303,0.179205 14.9218249,0.529487 17.8862295,1.024368 1.1064378,0.184708 2.2578241,0.581549 3.1117454,1.072507 1.7711471,1.018311 3.0885591,2.648899 3.7170171,4.600632 0.332621,1.032981 0.774105,3.500728 1.033906,5.779192 0.374352,3.283122 0.524758,6.505572 0.498378,10.677952 -0.0136,2.15034 -0.0244,2.62193 -0.09545,4.16259 -0.185476,4.02252 -0.615068,7.77946 -1.213598,10.61332 -0.398899,1.88866 -1.509083,3.59181 -3.1218634,4.78928 -0.7210055,0.53535 -1.6486533,0.99521 -2.5142118,1.24638 -2.2137928,0.6424 -8.2156958,1.13315 -16.3030218,1.33301 -3.343627,0.0827 -9.228128,0.11882 -12.637456,0.0777 z m 7.272623,-18.82149 c 3.704323,-2.12355 6.7442611,-3.86896 6.7554172,-3.87869 0.017083,-0.0148 -3.3304702,-1.94105 -15.3973222,-8.859461 l -1.544811,-0.885702 v 9.731733 9.73175 l 1.725793,-0.98931 c 0.94919,-0.54412 4.756603,-2.72676 8.460923,-4.85032 z"
       id="path3238" />
    <rect
       style="fill:none;fill-opacity:1;stroke:none;stroke-width:1.94184;stroke-linecap:round;stroke-linejoin:round"
       id="rect3797"
       width="97.523926"
       height="68.427971"
       x="-68.122261"
       y="72.947067"
       ry="2.4015088" />
  </g>
</svg>
