<?xml version="1.0" encoding="UTF-8" standalone="no"?>
<!-- Created with Inkscape (http://www.inkscape.org/) -->

<svg
   width="132.29167mm"
   height="132.29167mm"
   viewBox="0 0 132.29168 132.29167"
   version="1.1"
   id="svg5"
   inkscape:version="1.1.1 (1:1.1+202109281949+c3084ef5ed)"
   sodipodi:docname="fondo.svg"
   xml:space="preserve"
   xmlns:inkscape="http://www.inkscape.org/namespaces/inkscape"
   xmlns:sodipodi="http://sodipodi.sourceforge.net/DTD/sodipodi-0.dtd"
   xmlns="http://www.w3.org/2000/svg"
   xmlns:svg="http://www.w3.org/2000/svg"><sodipodi:namedview
     id="namedview7"
     pagecolor="#ffffff"
     bordercolor="#000000"
     borderopacity="0.25"
     inkscape:showpageshadow="2"
     inkscape:pageopacity="0.0"
     inkscape:pagecheckerboard="0"
     inkscape:deskcolor="#d1d1d1"
     inkscape:document-units="mm"
     showgrid="false"
     inkscape:zoom="2.1568742"
     inkscape:cx="123.79025"
     inkscape:cy="387.36612"
     inkscape:window-width="1860"
     inkscape:window-height="1016"
     inkscape:window-x="60"
     inkscape:window-y="27"
     inkscape:window-maximized="1"
     inkscape:current-layer="layer1"
     showguides="false"
     inkscape:pageshadow="2" /><defs
     id="defs2" /><g
     inkscape:label="Layer 1"
     inkscape:groupmode="layer"
     id="layer1"
     transform="translate(92.45372,-65.748611)"><rect
       style="opacity:1;fill:#18181a;stroke:none;stroke-width:0.104669;stroke-linecap:round;stroke-linejoin:round;fill-opacity:1"
       id="rect3129"
       width="132.29167"
       height="132.29167"
       x="-92.45372"
       y="65.748611"
       ry="0.32973847" /><path
       style="fill:#000080;stroke-width:0.291923"
       d="m -92.645548,140.7621 c 3.806525,-0.89658 7.500152,-1.73655 10.474995,-2.1702 7.32983,-1.06849 12.45649,-1.47925 18.40829,-1.47491 4.19314,0.003 12.50015,0.56046 15.01695,1.00764 0.40139,0.0713 1.64936,0.27685 2.77327,0.45673 3.40659,0.54522 6.40145,1.21795 6.78722,1.52461 0.22755,0.18087 0.3649,1.03538 0.3649,2.27007 v 1.98001 l -1.53259,-0.39759 c -2.52173,-0.65419 -9.18574,-1.80799 -12.77165,-2.21128 -4.35,-0.48921 -15.76936,-0.49804 -20.43465,-0.0158 -6.443354,0.66605 -12.665911,1.81763 -19.051649,3.34573 z"
       id="path1165-3"
       sodipodi:nodetypes="csccssscssccc" /><path
       style="fill:#800000;stroke-width:0.291923"
       d="m -92.459732,142.74526 c 6.38299,-1.50234 12.792836,-2.64766 19.090574,-3.30391 5.14965,-0.53662 16.68239,-0.45174 21.59198,0.1589 3.74065,0.46525 12.35745,2.07077 12.89419,2.40249 0.139,0.0859 0.25272,1.15098 0.25272,2.36682 v 2.21064 l -1.09471,-0.1783 c -0.60209,-0.0981 -1.68586,-0.31275 -2.40837,-0.47708 -7.18941,-1.63514 -12.51154,-2.19477 -20.87252,-2.19477 -10.12934,0 -18.197942,0.95403 -28.02466,3.31366 -0.453734,0.10895 -0.872804,0.099 -1.37903,0.22859 z"
       id="path1159-7"
       sodipodi:nodetypes="csssscccsscc" /><path
       style="fill:#44aa00;stroke-width:0.291923"
       d="m -92.459732,144.95342 c 6.38299,-1.50234 12.792836,-2.64766 19.090574,-3.30391 5.14965,-0.53662 16.68239,-0.45174 21.59198,0.1589 3.74065,0.46525 12.35745,2.07077 12.89419,2.40249 0.139,0.0859 0.25272,1.15098 0.25272,2.36682 v 2.21064 l -1.09471,-0.1783 c -0.60209,-0.0981 -1.68586,-0.31275 -2.40837,-0.47708 -7.18941,-1.63514 -12.51154,-2.19477 -20.87252,-2.19477 -10.12934,0 -18.197942,0.95403 -28.02466,3.31366 -0.453734,0.10895 -0.872804,0.099 -1.37903,0.22859 z"
       id="path1045"
       sodipodi:nodetypes="csssscccsscc" /><path
       style="fill:#c8ab37;stroke-width:0.291923"
       d="m -92.583563,146.50225 c 3.201379,-0.78753 6.417445,-1.27501 9.849715,-1.87776 6.780182,-1.19069 11.71536,-1.59253 19.55888,-1.59253 8.36098,0 13.68311,0.55963 20.87252,2.19477 0.72251,0.16433 1.8007,0.37826 2.39597,0.47541 l 1.08231,0.17664 0.099,-2.44514 c 0.0611,-1.51025 0.12166,-0.74958 0.15836,1.98946 0.0327,2.43903 -0.0391,4.49235 -0.15952,4.56293 -0.12042,0.0706 -1.72965,-0.24609 -3.57607,-0.7037 -14.837045,-3.67718 -31.832896,-3.16251 -50.390356,1.54441 z"
       id="path1161-6"
       sodipodi:nodetypes="csssscccsccc" /><path
       style="fill:#800080;stroke-width:0.291923"
       d="m -92.711571,148.77383 c 6.38299,-1.50234 12.792836,-2.64766 19.090574,-3.30391 5.14965,-0.53662 16.68239,-0.45174 21.59198,0.1589 3.74065,0.46525 12.35745,2.07077 12.89419,2.40249 0.139,0.0859 0.25272,1.15098 0.25272,2.36682 v 2.21064 l -1.09471,-0.1783 c -0.60209,-0.0981 -1.68586,-0.31275 -2.40837,-0.47708 -7.18941,-1.63514 -12.385461,-2.76694 -20.746441,-2.76694 -10.12934,0 -18.324021,1.5262 -28.150739,3.88583 -0.453734,0.10895 -0.872804,0.099 -1.37903,0.22859 z"
       id="path1047"
       sodipodi:nodetypes="csssscccsscc" /><path
       style="fill:#aa4400;stroke:none;stroke-width:0.291923"
       d="m -92.574154,150.73046 c 3.201379,-0.78753 6.417445,-1.27501 9.849715,-1.87776 6.780182,-1.19069 11.71536,-1.59253 19.55888,-1.59253 8.36098,0 13.68311,0.55963 20.87252,2.19477 0.72251,0.16433 1.8007,0.37826 2.39597,0.47541 l 1.08231,0.17664 0.099,-2.44514 c 0.0611,-1.51025 0.12166,-0.74958 0.15836,1.98946 0.0327,2.43903 -0.0391,3.43402 -0.15952,3.5046 -0.12042,0.0706 -1.72965,-0.24609 -3.57607,-0.7037 -14.837045,-3.67718 -32.161935,-4.43869 -50.390356,1.54441 z"
       id="path1049"
       sodipodi:nodetypes="csssscccsccc" /><path
       id="path385"
       style="opacity:0.618516;fill:#1a1a1a;stroke-width:0.291923"
       d="m -63.762024,137.11725 c -5.95178,-0.004 -11.07837,0.40636 -18.40818,1.47485 -2.97484,0.43365 -6.66881,1.27383 -10.47533,2.17041 l 0.03514,4.31498 c 0.0507,-0.0121 0.10126,-0.0236 0.15193,-0.0357 l 0.0155,1.42782 c -0.0468,0.0114 -0.09375,0.0216 -0.14056,0.0331 l -0.05684,2.25515 c -0.02361,0.006 -0.04719,0.011 -0.0708,0.0165 l 0.02171,1.9389 -0.0031,0.11369 c 0.0014,-3.5e-4 0.0027,-6.8e-4 0.0041,-0.001 l 0.02739,2.4753 c 3.3e-4,-9e-5 7e-4,8e-5 10e-4,0 l 0.04335,0.83468 c 18.538008,-4.58766 35.083449,-2.88397 50.323609,-1.68321 1.8964,0.14942 3.456106,0.77392 3.576526,0.70332 0.12042,-0.0706 0.191864,-1.06517 0.159164,-3.50418 -0.0072,-0.53576 -0.01597,-0.93143 -0.02481,-1.31362 0.02284,-0.79787 0.0303,-1.81099 0.0155,-2.91507 -0.0304,-2.26913 -0.07723,-3.15579 -0.127124,-2.54299 -0.03376,-0.35679 -0.07858,-0.63057 -0.129708,-0.77153 -0.01888,-1.08725 -0.150802,-1.83521 -0.361218,-2.00246 -0.38577,-0.30666 -3.380599,-0.97924 -6.787183,-1.52446 -1.123908,-0.17988 -2.372089,-0.38552 -2.773479,-0.45682 -2.51678,-0.44718 -10.82351,-1.00469 -15.01665,-1.00769 z m 24.875485,12.8726 c 0.0268,0.002 0.05625,0.005 0.07648,0.005 l -0.0047,0.11214 -0.0708,-0.0114 c -5.5e-4,-0.0351 -2.99e-4,-0.0713 -10e-4,-0.10594 z"
       sodipodi:nodetypes="cscccccccccccccssscscccsccccccccc" /><path
       id="rect480"
       style="fill:#333333;stroke-width:0.0911295;stroke-linecap:round;stroke-linejoin:round"
       d="m -45.308819,87.182486 c -2.652094,0 -4.787422,2.314783 -4.787422,5.190025 v 9.042929 80.72941 9.04293 c 0,2.87524 2.135328,5.19003 4.787422,5.19003 h 16.370574 v -4.01136 c -0.157931,-1.07273 -0.193556,-1.6369 -0.538632,-2.2012 -0.437774,-0.72205 -0.676321,-1.57269 -0.676443,-2.45 3.6e-5,-2.46385 1.842552,-4.46119 4.115184,-4.46123 2.272632,4e-5 4.115148,1.99738 4.115184,4.46123 -7.4e-4,0.8842 -0.243699,1.74131 -0.688589,2.46668 -0.267856,0.57629 -0.526486,1.31195 -0.526486,2.14931 v 4.04657 h 16.370574 c 2.6520941,0 4.7874223,-2.31479 4.7874223,-5.19003 v -9.04293 -80.72941 -9.042929 c 0,-2.875242 -2.1353285,-5.190025 -4.7874223,-5.190025 h -16.370574 v 4.011822 c 0.157932,1.072731 0.193557,1.636425 0.538632,2.200734 0.437775,0.722056 0.676321,1.572691 0.676443,2.449996 -3.6e-5,2.463854 -1.842551,4.461192 -4.115184,4.461232 -2.272631,-4e-5 -4.115148,-1.997379 -4.115184,-4.461232 7.4e-4,-0.884205 0.243699,-1.740838 0.68859,-2.466211 0.267856,-0.576288 0.526485,-1.312422 0.526485,-2.14977 v -4.046571 z" /><path
       id="path1111"
       style="fill:#4d4d4d;stroke-width:0.0947677;stroke-linecap:round;stroke-linejoin:round"
       d="m -45.308828,104.3935 c -2.652095,0 -4.787224,2.50339 -4.787224,5.61281 v 2.69501 57.84859 2.69453 c 0,3.10942 2.135129,5.61281 4.787224,5.61281 h 38.541385 c 2.6520941,0 4.7872242,-2.50339 4.7872242,-5.61281 v -3.00989 -57.21835 -3.00989 c 0,-3.10942 -2.1351301,-5.61281 -4.7872242,-5.61281 z" /><circle
       style="fill:#333333;stroke-width:0.190345;stroke-linecap:round;stroke-linejoin:round"
       id="path419"
       cx="-26.295383"
       cy="131.89854"
       r="15.986094" /><circle
       style="fill:#333333;stroke-width:0.0932307;stroke-linecap:round;stroke-linejoin:round"
       id="circle702"
       cx="-26.295383"
       cy="151.5731"
       r="7.8299727" /><rect
       style="fill:#333333;stroke-width:0.105833;stroke-linecap:round;stroke-linejoin:round"
       id="rect756"
       width="15.659945"
       height="6.6652679"
       x="-34.125355"
       y="144.90784" /><rect
       style="fill:#b3b3b3;stroke-width:0.105833;stroke-linecap:round;stroke-linejoin:round;stroke:#666666"
       id="rect729"
       width="42.619225"
       height="13.384883"
       x="-46.869755"
       y="160.90012"
       ry="2.0025952" /><path
       id="text785"
       style="font-weight:500;font-size:6.78236px;font-family:Ubuntu;-inkscape-font-specification:'Ubuntu Medium';fill:#808080;stroke:none;stroke-width:0.339117;stroke-linecap:round;stroke-linejoin:round"
       d="M -42.780266 165.73166 C -43.201956 165.73166 -43.541155 165.83343 -43.797258 166.03655 C -44.053363 166.23966 -44.181214 166.51646 -44.181214 166.8675 C -44.183422 167.3488 -44.025781 167.69209 -43.707858 167.89741 C -43.6063 167.96365 -43.422957 168.04663 -43.158021 168.14598 C -42.893085 168.24533 -42.70885 168.33009 -42.605083 168.40074 C -42.443914 168.51113 -42.363237 168.65689 -42.363237 168.83793 C -42.363237 169.23974 -42.643233 169.44099 -43.204013 169.44099 C -43.616871 169.44099 -43.92487 169.36121 -44.127988 169.20224 L -44.127988 169.9407 C -44.039676 169.98706 -43.932921 170.03156 -43.807077 170.07351 C -43.681232 170.11546 -43.449305 170.13655 -43.111512 170.13655 C -42.628006 170.13655 -42.259532 170.01688 -42.005637 169.77844 C -41.749532 169.53999 -41.621164 169.2288 -41.621164 168.84464 C -41.621164 168.45828 -41.714245 168.17368 -41.8997 167.99043 C -42.085155 167.80498 -42.383945 167.63033 -42.796803 167.46695 C -42.949141 167.40734 -43.058714 167.36336 -43.124948 167.33466 C -43.358975 167.23531 -43.475831 167.08175 -43.475831 166.87422 C -43.475831 166.54526 -43.211812 166.38071 -42.684148 166.38071 C -42.31103 166.38071 -42.025538 166.46689 -41.826836 166.63909 L -41.826836 165.93733 C -41.910732 165.89096 -42.019789 165.84557 -42.154465 165.80142 C -42.286931 165.75505 -42.495461 165.73166 -42.780266 165.73166 z M -24.079082 165.74509 C -24.359472 165.74509 -24.605591 165.79048 -24.817538 165.881 C -25.471046 166.16139 -25.79925 166.84247 -25.801458 167.92429 C -25.801458 168.62637 -25.654294 169.17127 -25.360658 169.55985 C -25.067021 169.94842 -24.643057 170.14276 -24.088901 170.14276 C -23.812926 170.14276 -23.548014 170.10197 -23.294117 170.02028 L -23.294117 169.38105 C -23.495027 169.44507 -23.708159 169.47716 -23.933355 169.47716 C -24.158549 169.47716 -24.344195 169.45198 -24.48991 169.4012 C -24.635624 169.35042 -24.757978 169.26514 -24.857329 169.14592 C -24.954472 169.02449 -25.027349 168.86455 -25.075921 168.66584 C -25.124491 168.46714 -25.148784 168.22013 -25.148784 167.92429 C -25.148784 167.62844 -25.124491 167.38322 -25.075921 167.18893 C -25.025141 166.99244 -24.952264 166.83658 -24.857329 166.72178 C -24.760186 166.60697 -24.64192 166.52681 -24.502829 166.48045 C -24.36153 166.43408 -24.182791 166.41068 -23.966428 166.41068 C -23.747856 166.41068 -23.539328 166.44047 -23.340626 166.50008 L -23.340626 165.86756 C -23.552574 165.78588 -23.798692 165.74509 -24.079082 165.74509 z M -21.102003 165.81796 L -21.102003 170.06989 L -20.48912 170.06989 L -20.48912 166.69852 L -19.641627 169.87145 L -19.035462 169.87145 L -18.181251 166.69852 L -18.181251 170.06989 L -17.575086 170.06989 L -17.575086 165.81796 L -18.555388 165.81796 L -19.343454 168.83483 L -20.121701 165.81796 L -21.102003 165.81796 z M -14.133953 165.81796 L -14.133953 167.06956 L -14.634181 167.06956 L -14.634181 167.64265 L -14.133953 167.64265 L -14.133953 168.98727 C -14.133953 169.34935 -14.036783 169.63165 -13.842498 169.83476 C -13.648212 170.03567 -13.395704 170.13655 -13.084404 170.13655 C -12.938691 170.13655 -12.803039 170.12326 -12.677194 170.09676 L -12.677194 169.4937 C -12.76109 169.52019 -12.847264 169.53349 -12.935576 169.53349 C -13.326356 169.53349 -13.521587 169.34465 -13.521587 168.96712 L -13.521587 167.64265 L -12.812586 167.64265 L -12.812586 167.06956 L -13.521587 167.06956 L -13.521587 165.81796 L -14.133953 165.81796 z M -28.983692 165.82467 L -28.983692 170.06989 L -27.960499 170.06989 C -27.313615 170.06989 -26.847974 169.90906 -26.563168 169.58672 C -26.276156 169.26438 -26.132187 168.73634 -26.132187 168.00335 C -26.132187 167.26815 -26.277941 166.72184 -26.569369 166.36417 C -26.860799 166.00431 -27.32005 165.82467 -27.947063 165.82467 L -28.983692 165.82467 z M -41.399472 166.02673 L -41.399472 166.67217 L -40.766952 166.67217 L -40.766952 166.02673 L -41.399472 166.02673 z M -28.324818 166.47373 L -28.059718 166.47373 C -27.631405 166.47373 -27.32021 166.57729 -27.125925 166.78482 C -26.931638 166.99015 -26.83447 167.37563 -26.83447 167.94082 C -26.83447 168.50602 -26.930746 168.89098 -27.122824 169.09631 C -27.314902 169.29943 -27.630186 169.4012 -28.069536 169.4012 L -28.324818 169.4012 L -28.324818 166.47373 z M -32.23569 166.98378 C -32.412314 166.98378 -32.578273 167.03415 -32.732817 167.1357 C -32.887363 167.23726 -32.98862 167.37982 -33.037192 167.56307 L -33.030474 167.08609 L -33.643356 167.08609 L -33.643356 170.06989 L -33.024273 170.06989 L -33.024273 168.27207 C -33.024273 168.03142 -32.968781 167.85447 -32.858391 167.74187 C -32.745794 167.62706 -32.590455 167.56979 -32.391753 167.56979 C -32.000973 167.56979 -31.805226 167.80402 -31.805226 168.27207 L -31.805226 170.06989 L -31.189242 170.06989 L -31.189242 168.22556 C -31.189242 167.39764 -31.538027 166.98378 -32.23569 166.98378 z M -8.2593759 166.98378 C -8.3167787 166.98378 -8.3850507 166.99247 -8.4645314 167.01013 C -8.7581681 167.06974 -8.9611989 167.22329 -9.0737965 167.47057 L -9.1001515 167.06284 L -9.7393889 167.06284 L -9.7393889 170.06369 L -9.0805144 170.06369 L -9.0805144 168.32168 C -9.0805144 168.1009 -9.0076376 167.92944 -8.8619231 167.80801 C -8.7162087 167.68438 -8.5383629 167.6225 -8.3286223 167.6225 C -8.2314794 167.6225 -8.1499099 167.63171 -8.0836761 167.64937 L -8.0836761 167.00031 C -8.1432865 166.98927 -8.2019733 166.98378 -8.2593759 166.98378 z M -39.157232 166.98688 C -39.349309 166.98688 -39.520765 167.03776 -39.670895 167.13932 C -39.818818 167.24088 -39.917772 167.37883 -39.968552 167.55325 L -39.995423 167.05664 L -40.574716 167.05664 L -40.574716 170.06989 L -39.955632 170.06989 L -39.955632 168.26845 C -39.955632 167.99248 -39.907048 167.80505 -39.809905 167.7057 C -39.712762 167.60414 -39.573399 167.55325 -39.392359 167.55325 C -39.213529 167.55325 -39.085676 167.61053 -39.008403 167.72533 C -38.931132 167.84014 -38.892648 168.02118 -38.892648 168.26845 L -38.892648 170.06989 L -38.273048 170.06989 L -38.273048 168.26845 C -38.273048 167.97923 -38.212576 167.77939 -38.091147 167.669 C -38.00725 167.59173 -37.87658 167.55325 -37.699956 167.55325 C -37.523332 167.55325 -37.396891 167.61513 -37.319618 167.73877 C -37.242345 167.8602 -37.203346 168.03663 -37.203346 168.26845 L -37.203346 170.06989 L -36.587363 170.06989 L -36.587363 168.21574 C -36.587363 167.39665 -36.883474 166.98688 -37.475164 166.98688 C -37.914514 166.98688 -38.204613 167.19221 -38.345912 167.60286 C -38.471755 167.19221 -38.742166 166.98688 -39.157232 166.98688 z M -35.120269 166.98998 C -35.336632 166.98998 -35.523172 167.02757 -35.679924 167.10263 C -36.154601 167.33224 -36.392026 167.81719 -36.392026 168.55681 C -36.392026 169.03369 -36.283861 169.41457 -36.067498 169.69937 C -35.851134 169.98418 -35.534442 170.12622 -35.117168 170.12622 C -34.699894 170.12622 -34.384987 169.98418 -34.17304 169.69937 C -33.958883 169.41236 -33.852129 169.03148 -33.852129 168.55681 C -33.852129 168.07992 -33.960293 167.69994 -34.176657 167.41734 C -34.390813 167.13253 -34.705203 166.98998 -35.120269 166.98998 z M -16.111093 166.98998 C -16.327457 166.98998 -16.513995 167.02757 -16.670749 167.10263 C -17.145424 167.33224 -17.38285 167.81719 -17.38285 168.55681 C -17.38285 169.03369 -17.274686 169.41457 -17.058322 169.69937 C -16.841958 169.98418 -16.525266 170.12622 -16.107992 170.12622 C -15.69072 170.12622 -15.375813 169.98418 -15.163864 169.69937 C -14.949708 169.41236 -14.842953 169.03148 -14.842953 168.55681 C -14.842953 168.07992 -14.951118 167.69994 -15.167481 167.41734 C -15.381638 167.13253 -15.696027 166.98998 -16.111093 166.98998 z M -11.226637 166.98998 C -11.443 166.98998 -11.62954 167.02757 -11.786292 167.10263 C -12.260969 167.33224 -12.498394 167.81719 -12.498394 168.55681 C -12.498394 169.03369 -12.390229 169.41457 -12.173866 169.69937 C -11.957502 169.98418 -11.640293 170.12622 -11.223019 170.12622 C -10.805747 170.12622 -10.491355 169.98418 -10.279408 169.69937 C -10.065251 169.41236 -9.9579803 169.03148 -9.9579803 168.55681 C -9.9579803 168.07992 -10.066144 167.69994 -10.282508 167.41734 C -10.496665 167.13253 -10.811571 166.98998 -11.226637 166.98998 z M -41.399472 167.06956 L -41.399472 170.06989 L -40.766952 170.06989 L -40.766952 167.06956 L -41.399472 167.06956 z M -35.113551 167.59976 C -34.890563 167.59976 -34.73062 167.67353 -34.633477 167.82145 C -34.582697 167.89872 -34.545108 167.99819 -34.520822 168.11962 C -34.496536 168.23884 -34.484649 168.42219 -34.484649 168.66946 C -34.484649 168.91673 -34.534126 169.12386 -34.633477 169.29164 C -34.73062 169.45723 -34.890563 169.54021 -35.113551 169.54021 C -35.33433 169.54021 -35.495683 169.45723 -35.597242 169.29164 C -35.696593 169.12386 -35.74607 168.87454 -35.74607 168.54337 C -35.74607 168.2122 -35.696593 167.97247 -35.597242 167.82455 C -35.497891 167.67442 -35.336538 167.59976 -35.113551 167.59976 z M -16.104375 167.59976 C -15.881388 167.59976 -15.721444 167.67353 -15.624301 167.82145 C -15.573522 167.89872 -15.535932 167.99819 -15.511646 168.11962 C -15.487361 168.23884 -15.475473 168.42219 -15.475473 168.66946 C -15.475473 168.91673 -15.52495 169.12386 -15.624301 169.29164 C -15.721444 169.45723 -15.881388 169.54021 -16.104375 169.54021 C -16.325155 169.54021 -16.486508 169.45723 -16.588067 169.29164 C -16.687416 169.12386 -16.736895 168.87454 -16.736895 168.54337 C -16.736895 168.2122 -16.687416 167.97247 -16.588067 167.82455 C -16.488716 167.67442 -16.327363 167.59976 -16.104375 167.59976 z M -11.219919 167.59976 C -10.996931 167.59976 -10.836988 167.67353 -10.739845 167.82145 C -10.689065 167.89872 -10.651476 167.99819 -10.62719 168.11962 C -10.602904 168.23884 -10.5905 168.42219 -10.5905 168.66946 C -10.5905 168.91673 -10.640494 169.12386 -10.739845 169.29164 C -10.836988 169.45723 -10.996931 169.54021 -11.219919 169.54021 C -11.440698 169.54021 -11.602051 169.45723 -11.70361 169.29164 C -11.802961 169.12386 -11.852438 168.87454 -11.852438 168.54337 C -11.852438 168.2122 -11.802961 167.97247 -11.70361 167.82455 C -11.604259 167.67442 -11.442906 167.59976 -11.219919 167.59976 z " /></g></svg>
