<?xml version="1.0" encoding="UTF-8" standalone="no"?>
<!-- Created with Inkscape (http://www.inkscape.org/) -->

<svg
   width="18.520834mm"
   height="55.392365mm"
   viewBox="0 0 18.520834 55.392365"
   version="1.1"
   id="svg5"
   inkscape:version="1.2 (1:1.2.1+202207142221+cd75a1ee6d)"
   sodipodi:docname="img.svg"
   xmlns:inkscape="http://www.inkscape.org/namespaces/inkscape"
   xmlns:sodipodi="http://sodipodi.sourceforge.net/DTD/sodipodi-0.dtd"
   xmlns="http://www.w3.org/2000/svg"
   xmlns:svg="http://www.w3.org/2000/svg">
  <sodipodi:namedview
     id="namedview7"
     pagecolor="#ffffff"
     bordercolor="#000000"
     borderopacity="0.25"
     inkscape:showpageshadow="2"
     inkscape:pageopacity="0.0"
     inkscape:pagecheckerboard="0"
     inkscape:deskcolor="#d1d1d1"
     inkscape:document-units="mm"
     showgrid="false"
     inkscape:zoom="8.6274964"
     inkscape:cx="33.20778"
     inkscape:cy="82.990472"
     inkscape:window-width="1862"
     inkscape:window-height="1028"
     inkscape:window-x="58"
     inkscape:window-y="24"
     inkscape:window-maximized="1"
     inkscape:current-layer="layer1" />
  <defs
     id="defs2" />
  <g
     inkscape:label="Layer 1"
     inkscape:groupmode="layer"
     id="layer1"
     transform="translate(-73.827062,-99.393842)">
    <path
       id="path1099"
       style="fill:#808080;stroke:#1a1a1a;stroke-width:0.0850704;stroke-linecap:round;stroke-linejoin:round"
       d="M 83.087479 99.436217 A 5.750372 5.750372 0 0 0 77.336925 105.18677 L 76.92248 110.01025 A 0.96534973 0.96534973 0 0 1 77.334341 110.89236 A 0.96534973 0.96534973 0 0 1 76.779853 111.66648 L 76.748331 112.03545 A 0.96534973 0.96534973 0 0 1 77.146239 112.90775 A 0.96534973 0.96534973 0 0 1 76.607254 113.67669 L 76.574181 114.06013 A 0.96534973 0.96534973 0 0 1 76.958137 114.92364 A 0.96534973 0.96534973 0 0 1 76.434655 115.68535 L 76.400032 116.08585 A 0.96534973 0.96534973 0 0 1 76.770035 116.93902 A 0.96534973 0.96534973 0 0 1 76.261539 117.69453 L 76.225882 118.11363 A 0.96534973 0.96534973 0 0 1 76.581933 118.95441 A 0.96534973 0.96534973 0 0 1 76.088939 119.70475 L 76.051732 120.1409 A 0.96534973 0.96534973 0 0 1 76.39383 120.96979 A 0.96534973 0.96534973 0 0 1 75.91634 121.71393 L 75.877066 122.16816 A 0.96534973 0.96534973 0 0 1 76.205728 122.98568 A 0.96534973 0.96534973 0 0 1 75.743741 123.72052 L 75.702916 124.19543 A 0.96534973 0.96534973 0 0 1 76.017626 125.00106 A 0.96534973 0.96534973 0 0 1 75.571658 125.72247 L 75.528767 126.22321 A 0.96534973 0.96534973 0 0 1 75.829524 127.01645 A 0.96534973 0.96534973 0 0 1 75.399576 127.72493 L 75.354617 128.25151 A 0.96534973 0.96534973 0 0 1 75.641422 129.03183 A 0.96534973 0.96534973 0 0 1 75.227493 129.72687 L 75.179951 130.28188 A 0.96534973 0.96534973 0 0 1 75.452803 131.04772 A 0.96534973 0.96534973 0 0 1 75.055411 131.7283 L 74.000178 144.00611 A 9.2178818 9.2178818 0 0 0 73.869437 145.52591 A 9.2178818 9.2178818 0 0 0 83.087479 154.74344 A 9.2178818 9.2178818 0 0 0 92.305521 145.52591 A 9.2178818 9.2178818 0 0 0 92.171162 143.96166 L 91.147969 132.06007 A 0.96534973 0.96534973 0 0 1 90.702518 131.33866 A 0.96534973 0.96534973 0 0 1 91.017227 130.53509 L 90.975886 130.05812 A 0.96534973 0.96534973 0 0 1 90.513899 129.32276 A 0.96534973 0.96534973 0 0 1 90.842561 128.50524 L 90.803804 128.05204 A 0.96534973 0.96534973 0 0 1 90.325797 127.30738 A 0.96534973 0.96534973 0 0 1 90.668411 126.48108 L 90.630687 126.04234 A 0.96534973 0.96534973 0 0 1 90.137694 125.292 A 0.96534973 0.96534973 0 0 1 90.494262 124.45588 L 90.458088 124.03316 A 0.96534973 0.96534973 0 0 1 89.949592 123.27662 A 0.96534973 0.96534973 0 0 1 90.320629 122.43171 L 90.285489 122.02347 A 0.96534973 0.96534973 0 0 1 89.76149 121.26072 A 0.96534973 0.96534973 0 0 1 90.146479 120.40806 L 90.11289 120.01429 A 0.96534973 0.96534973 0 0 1 89.573388 119.24534 A 0.96534973 0.96534973 0 0 1 89.97233 118.38338 L 89.939774 118.00459 A 0.96534973 0.96534973 0 0 1 89.385285 117.22996 A 0.96534973 0.96534973 0 0 1 89.79818 116.3587 L 89.767174 115.99541 A 0.96534973 0.96534973 0 0 1 89.197183 115.21458 A 0.96534973 0.96534973 0 0 1 89.624547 114.33453 L 89.594575 113.98623 A 0.96534973 0.96534973 0 0 1 89.009081 113.19868 A 0.96534973 0.96534973 0 0 1 89.450398 112.31037 L 89.421459 111.97654 A 0.96534973 0.96534973 0 0 1 88.820979 111.1833 A 0.96534973 0.96534973 0 0 1 89.276248 110.28568 L 88.838032 105.18677 A 5.750372 5.750372 0 0 0 83.087479 99.436217 z M 83.087479 102.57246 A 2.0277338 2.0277338 0 0 1 85.115262 104.60024 A 2.0277338 2.0277338 0 0 1 83.087479 106.62803 A 2.0277338 2.0277338 0 0 1 81.059695 104.60024 A 2.0277338 2.0277338 0 0 1 83.087479 102.57246 z M 83.087479 109.13847 A 1.3406811 1.3406811 0 0 1 84.427965 110.47947 A 1.3406811 1.3406811 0 0 1 83.087479 111.81996 A 1.3406811 1.3406811 0 0 1 81.746992 110.47947 A 1.3406811 1.3406811 0 0 1 83.087479 109.13847 z M 83.087479 114.86783 A 1.0721525 1.0721525 0 0 1 84.159765 115.9396 A 1.0721525 1.0721525 0 0 1 83.087479 117.01189 A 1.0721525 1.0721525 0 0 1 82.015193 115.9396 A 1.0721525 1.0721525 0 0 1 83.087479 114.86783 z M 83.087479 120.90054 A 0.65153128 0.65153128 0 0 1 83.739118 121.55218 A 0.65153128 0.65153128 0 0 1 83.087479 122.20382 A 0.65153128 0.65153128 0 0 1 82.435839 121.55218 A 0.65153128 0.65153128 0 0 1 83.087479 120.90054 z " />
    <circle
       style="fill:#aa8800;stroke:#1a1a1a;stroke-width:0.0926712;stroke-linecap:round;stroke-linejoin:round"
       id="path1222"
       cx="83.087479"
       cy="145.52579"
       r="2.1949792" />
    <circle
       style="fill:#333333;stroke:#1a1a1a;stroke-width:0.0418408;stroke-linecap:round;stroke-linejoin:round"
       id="circle1278"
       cx="77.925461"
       cy="145.52579"
       r="0.99102777"
       inkscape:transform-center-x="5.174324"
       inkscape:transform-center-y="-0.024544061" />
    <circle
       style="fill:#333333;stroke:#1a1a1a;stroke-width:0.0418408;stroke-linecap:round;stroke-linejoin:round"
       id="circle1280"
       cx="140.37601"
       cy="-83.124329"
       r="0.99102777"
       inkscape:transform-center-x="-0.024543848"
       inkscape:transform-center-y="-5.1743244"
       transform="rotate(90)" />
    <circle
       style="fill:#333333;stroke:#1a1a1a;stroke-width:0.0418408;stroke-linecap:round;stroke-linejoin:round"
       id="circle1282"
       cx="-88.274109"
       cy="-145.57487"
       r="0.99102777"
       inkscape:transform-center-x="-5.1743241"
       inkscape:transform-center-y="0.024543463"
       transform="scale(-1)" />
    <circle
       style="fill:#333333;stroke:#1a1a1a;stroke-width:0.0418408;stroke-linecap:round;stroke-linejoin:round"
       id="circle1284"
       cx="-150.72466"
       cy="83.075241"
       r="0.99102777"
       inkscape:transform-center-x="0.024543677"
       inkscape:transform-center-y="5.1743238"
       transform="rotate(-90)" />
    <circle
       style="fill:#333333;stroke:#1a1a1a;stroke-width:0.0418408;stroke-linecap:round;stroke-linejoin:round"
       id="circle293"
       cx="140.37601"
       cy="-83.124329"
       r="0.99102777"
       inkscape:transform-center-x="-0.024543848"
       inkscape:transform-center-y="-5.1743244"
       transform="rotate(90)" />
    <g
       id="g383" />
  </g>
</svg>
