<?xml version="1.0" encoding="UTF-8" standalone="no"?>
<!-- Created with Inkscape (http://www.inkscape.org/) -->

<svg
   width="79.792877mm"
   height="79.792877mm"
   viewBox="0 0 79.792876 79.792874"
   version="1.1"
   id="svg5"
   inkscape:version="1.1.1 (1:1.1+202109281949+c3084ef5ed)"
   sodipodi:docname="github.svg"
   xmlns:inkscape="http://www.inkscape.org/namespaces/inkscape"
   xmlns:sodipodi="http://sodipodi.sourceforge.net/DTD/sodipodi-0.dtd"
   xmlns="http://www.w3.org/2000/svg"
   xmlns:svg="http://www.w3.org/2000/svg">
  <sodipodi:namedview
     id="namedview7"
     pagecolor="#ffffff"
     bordercolor="#666666"
     borderopacity="1.0"
     inkscape:pageshadow="2"
     inkscape:pageopacity="0.0"
     inkscape:pagecheckerboard="0"
     inkscape:document-units="mm"
     showgrid="false"
     inkscape:zoom="1.327371"
     inkscape:cx="279.87654"
     inkscape:cy="169.88468"
     inkscape:window-width="1860"
     inkscape:window-height="1016"
     inkscape:window-x="60"
     inkscape:window-y="27"
     inkscape:window-maximized="1"
     inkscape:current-layer="layer1" />
  <defs
     id="defs2" />
  <g
     inkscape:label="Layer 1"
     inkscape:groupmode="layer"
     id="layer1"
     transform="translate(59.399446,-68.077293)">
    <path
       style="fill:#000000;stroke-width:0.178836"
       d="m -32.67205,143.61285 c -7.39232,-2.74809 -13.832545,-7.84258 -18.248657,-14.43545 -1.424947,-2.12733 -3.555723,-6.50144 -4.340845,-8.91102 -2.477233,-7.6027 -2.471176,-15.59072 0.01752,-23.15385 4.652077,-14.137551 17.226382,-24.114498 32.23635,-25.577586 11.065762,-1.078631 22.32929796,2.987445 30.2686804,10.926827 7.7838326,7.783834 11.7911456,18.901459 10.7028346,29.693269 -0.25829,2.56125 -0.948419,5.87337 -1.699635,8.15709 -0.783218,2.38098 -2.925626,6.76467 -4.332668,8.86527 -3.7722157,5.63158 -8.7543548,9.97915 -14.7942808,12.90994 -4.2873417,2.08037 -5.8666285,2.43601 -6.7773426,1.52615 -0.3656826,-0.36537 -0.3787456,-0.56586 -0.4699406,-7.21172 -0.09012,-6.56695 -0.110092,-6.88162 -0.507834,-7.99833 -0.227718,-0.63932 -0.730585,-1.627 -1.117479,-2.19478 -0.468723,-0.68787 -0.627477,-1.0543 -0.475769,-1.09813 0.125239,-0.0363 1.072681,-0.2023 2.105465,-0.36912 3.6390868,-0.5878 7.1330255,-2.05476 9.33160524,-3.91793 2.44721796,-2.0739 4.22602646,-5.40631 4.87954186,-9.14129 1.0328521,-5.90301 0.1349247,-10.5576 -2.7241227,-14.121113 L 0.68735958,96.696062 1.0136415,95.51939 C 1.4607676,93.906916 1.4506002,91.051473 0.9909054,89.134162 0.4471307,86.866167 0.35876706,86.734406 -0.61842104,86.734406 c -1.82259496,0 -4.70889896,1.050627 -7.58268856,2.760135 l -1.8994744,1.129924 -1.388521,-0.319847 c -2.819935,-0.649576 -4.247356,-0.790531 -8.00549,-0.790531 -3.758132,0 -5.185556,0.140964 -8.005492,0.790531 l -1.388518,0.319847 -1.899474,-1.129924 c -2.873793,-1.709508 -5.760097,-2.760135 -7.582692,-2.760135 -0.977187,0 -1.065548,0.131748 -1.609326,2.399756 -0.459693,1.917311 -0.469859,4.772754 -0.02271,6.385228 l 0.326285,1.176672 -0.69402,0.865015 c -2.297836,2.864013 -3.360118,6.509913 -3.108967,10.670473 0.401564,6.65225 2.520842,10.9181 6.817663,13.72309 2.046472,1.33596 5.037263,2.40418 8.046588,2.87399 2.318028,0.36188 2.175426,0.2354 1.422309,1.26135 -0.656324,0.89409 -1.500861,2.95679 -1.507959,3.68305 -0.0093,0.94218 -4.285673,1.64995 -6.362353,1.053 -1.921544,-0.55236 -3.284978,-1.65785 -4.621434,-3.74708 -0.851961,-1.33182 -2.039728,-2.44592 -3.355075,-3.14699 -2.185031,-1.1646 -4.894577,-0.78009 -3.855891,0.54721 0.119827,0.15316 0.662882,0.6053 1.206801,1.00486 1.695389,1.24544 2.736718,2.5524 3.837871,4.81696 1.170377,2.40689 2.124638,3.49242 3.824384,4.35044 1.773441,0.89524 3.148609,1.13599 5.834603,1.02153 1.278685,-0.0545 2.546193,-0.15253 2.816684,-0.2178 l 0.491803,-0.11876 v 3.78817 c 0,2.25615 -0.07446,3.92733 -0.184139,4.13224 -0.241627,0.45148 -1.100888,0.8865 -1.729479,0.8756 -0.275375,-0.004 -1.119082,-0.23859 -1.874905,-0.51957 z"
       id="path1341" />
    <path
       style="fill:#333333;stroke-width:0.137784"
       d="m -38.239172,120.89434 c -0.05092,-0.0824 -0.02187,-0.2205 0.06456,-0.30693 0.173065,-0.17305 0.572215,0.002 0.66952,0.29434 0.06883,0.2065 -0.60706,0.21809 -0.734073,0.0127 z"
       id="path1460" />
    <path
       style="fill:#333333;stroke-width:0.137784"
       d="m -36.996086,121.99475 c -0.140121,-0.44148 0.145981,-0.63889 0.483393,-0.33353 0.378209,0.34227 0.352822,0.62298 -0.05635,0.62298 -0.219522,0 -0.366877,-0.0999 -0.427043,-0.28945 z"
       id="path1458" />
    <path
       style="fill:#333333;stroke-width:0.137784"
       d="m -35.847284,123.58942 c -0.121083,-0.26573 -0.119484,-0.38739 0.0067,-0.51361 0.239535,-0.23953 0.62956,0.0439 0.683656,0.4968 0.03489,0.29219 -0.0138,0.365 -0.24408,0.365 -0.173966,0 -0.350385,-0.13763 -0.446325,-0.34819 z"
       id="path1456" />
    <path
       style="fill:#333333;stroke-width:0.137784"
       d="m -34.415103,125.42569 c -0.09094,-0.0909 -0.165343,-0.30794 -0.165343,-0.48225 0,-0.23882 0.07807,-0.3169 0.316906,-0.3169 0.4038,0 0.647589,0.24379 0.647589,0.6476 0,0.23882 -0.07807,0.31689 -0.316906,0.31689 -0.174298,0 -0.39131,-0.0744 -0.482246,-0.16534 z"
       id="path1454" />
    <path
       style="fill:#333333;stroke-width:0.137784"
       d="m -32.512215,126.4884 c -0.242746,-0.2925 -0.06858,-0.62179 0.328841,-0.62179 0.411006,0 0.789246,0.34584 0.682496,0.62402 -0.101073,0.26339 -0.79216,0.26186 -1.011337,-0.002 z"
       id="path1452" />
    <path
       style="fill:#333333;stroke-width:0.137784"
       d="m -27.966763,126.69514 c -0.343613,-0.21905 0.01568,-0.62185 0.554674,-0.62185 0.524095,0 0.658731,0.21365 0.337238,0.53514 -0.250316,0.25032 -0.584319,0.28279 -0.891912,0.0867 z"
       id="path1450" />
    <path
       style="fill:#333333;stroke-width:0.137784"
       d="m -30.098483,126.91992 c -0.364557,-0.26658 -0.178248,-0.63996 0.319318,-0.63996 0.220445,0 0.483564,0.0998 0.58471,0.22159 0.15625,0.18828 0.144469,0.25043 -0.07836,0.41336 -0.328449,0.24017 -0.502634,0.24122 -0.825673,0.005 z"
       id="path1448" />
  </g>
</svg>
