<?xml version="1.0" encoding="UTF-8" standalone="no"?>
<!-- Created with Inkscape (http://www.inkscape.org/) -->

<svg
   width="79.792877mm"
   height="79.792877mm"
   viewBox="0 0 79.792876 79.792874"
   version="1.1"
   id="svg5"
   inkscape:version="1.1.1 (1:1.1+202109281949+c3084ef5ed)"
   sodipodi:docname="instagram.svg"
   xmlns:inkscape="http://www.inkscape.org/namespaces/inkscape"
   xmlns:sodipodi="http://sodipodi.sourceforge.net/DTD/sodipodi-0.dtd"
   xmlns="http://www.w3.org/2000/svg"
   xmlns:svg="http://www.w3.org/2000/svg">
  <sodipodi:namedview
     id="namedview7"
     pagecolor="#ffffff"
     bordercolor="#666666"
     borderopacity="1.0"
     inkscape:pageshadow="2"
     inkscape:pageopacity="0.0"
     inkscape:pagecheckerboard="0"
     inkscape:document-units="mm"
     showgrid="false"
     inkscape:zoom="1.8771861"
     inkscape:cx="120.12661"
     inkscape:cy="162.74359"
     inkscape:window-width="1860"
     inkscape:window-height="1016"
     inkscape:window-x="60"
     inkscape:window-y="27"
     inkscape:window-maximized="1"
     inkscape:current-layer="layer1" />
  <defs
     id="defs2" />
  <g
     inkscape:label="Layer 1"
     inkscape:groupmode="layer"
     id="layer1"
     transform="translate(59.399446,-68.077293)">
    <path
       style="fill:#000000;stroke-width:0.0342225"
       d="m -34.213237,142.95198 c -3.285488,-0.022 -3.784076,-0.0357 -4.962269,-0.13646 -3.412534,-0.29183 -5.906254,-1.14123 -8.259542,-2.81335 -3.003154,-2.13385 -5.084176,-5.37089 -5.835577,-9.07727 -0.189781,-0.9361 -0.354541,-2.19978 -0.412733,-3.16558 -0.06242,-1.03596 -0.07274,-3.70973 -0.07634,-19.78066 -0.0044,-18.23144 7.79e-4,-18.663271 0.230366,-20.396643 0.451445,-3.408756 1.530581,-5.967517 3.484951,-8.263217 0.394252,-0.463111 1.392539,-1.446869 1.837392,-1.810653 1.83762,-1.502745 4.162482,-2.581368 6.606555,-3.065135 1.196753,-0.236877 2.383316,-0.367837 3.793811,-0.418717 1.598149,-0.05764 34.5660661,-0.05994 36.4299233,-0.0026 2.01751662,0.06214 2.6703508,0.118805 4.0516756,0.351649 2.8320907,0.477397 5.3892978,1.67336 7.4299961,3.474888 0.416015,0.367259 1.192035,1.148293 1.510534,1.520299 0.758036,0.885377 1.420062,1.920954 1.991848,3.115732 0.729349,1.523999 1.147815,2.939136 1.40624,4.755458 0.197458,1.387884 0.197406,1.38629 0.222487,6.108728 0.03449,6.501171 0.03624,23.807091 0.0026,29.619641 -0.02758,4.8168 -0.03292,5.11688 -0.101102,5.74939 -0.176587,1.63774 -0.410631,2.77747 -0.822234,4.00404 -1.484935,4.42513 -4.8235539,7.78923 -9.1729362,9.243 -1.2391427,0.41418 -2.5555088,0.68345 -4.0724853,0.83305 -1.02029679,0.10063 -1.49997507,0.1257 -2.9944698,0.15651 -1.7097861,0.0353 -26.9486967,0.0335 -32.2889957,-0.002 z m 21.03937,-8.9983 c 3.6559976,-0.0543 5.5790703,-0.15804 7.0573604,-0.38096 1.9933016,-0.30055 3.9114107,-0.94812 5.45659412,-1.84216 1.56475858,-0.90538 3.13520758,-2.38042 4.19163428,-3.93702 1.4152488,-2.08531 2.2357672,-4.69387 2.4812619,-7.8883 0.1442309,-1.87681 0.187811,-3.78895 0.2117982,-9.29143 C 6.2580493,102.97402 6.1775951,98.66139 5.9610168,96.479883 5.6509049,93.356188 4.7135399,90.732318 3.1796321,88.69425 2.4145737,87.677731 1.2848277,86.574157 0.26336655,85.845543 -1.4818142,84.600698 -3.8463779,83.720404 -6.373172,83.374849 c -2.2238346,-0.304122 -6.269549,-0.402937 -14.98949,-0.366112 -8.484673,0.03583 -10.459651,0.154994 -12.842363,0.774865 -1.717114,0.446713 -3.291809,1.160153 -4.585203,2.077395 -0.931605,0.660678 -1.930287,1.607941 -2.682897,2.544764 -1.76191,2.193177 -2.785753,5.08774 -3.055637,8.638795 -0.169575,2.23107 -0.204147,4.159154 -0.204681,11.413234 -5.17e-4,6.70497 0.01558,7.93519 0.135187,10.33521 0.139626,2.80234 0.465505,4.53062 1.216381,6.45096 0.67943,1.73763 1.566353,3.09126 2.905313,4.43418 1.323905,1.3278 2.637592,2.20508 4.320047,2.8849 1.989474,0.80388 3.878003,1.15937 6.837104,1.28699 0.442333,0.019 1.004435,0.0445 1.249132,0.0568 1.454522,0.072 11.147984,0.1026 14.896412,0.0469 z m -13.185287,-4.62134 c -4.36865,-0.0919 -6.034961,-0.2918 -7.751409,-0.93018 -1.150014,-0.42769 -1.909085,-0.8801 -2.774566,-1.65365 -1.286574,-1.14991 -2.136683,-2.58316 -2.616502,-4.4113 -0.382564,-1.45764 -0.495917,-2.62259 -0.597891,-6.14512 -0.04281,-1.47759 -0.04299,-13.89157 -2.62e-4,-15.41728 0.09801,-3.499853 0.214994,-4.702362 0.600246,-6.170159 0.324145,-1.234982 0.91195,-2.463814 1.583065,-3.309486 0.248715,-0.313402 0.982485,-1.061158 1.307663,-1.332582 1.257257,-1.049419 2.898932,-1.71775 4.9965,-2.034095 1.807286,-0.272566 5.503975,-0.360446 13.808802,-0.328273 6.942133,0.02689 9.0271297,0.08737 10.6893001,0.309999 1.0820512,0.144933 1.9457294,0.35587 2.8045402,0.684956 1.2943049,0.495959 2.1824432,1.082486 3.1405566,2.074017 0.80831462,0.836514 1.29309678,1.591196 1.74308845,2.713555 0.59528185,1.484728 0.84189695,2.921902 0.93957995,5.475608 0.020135,0.527031 0.044561,1.050626 0.054191,1.16357 0.041147,0.48092 0.072575,8.77782 0.04745,12.50835 -0.025475,3.77817 -0.041846,4.54831 -0.13531,6.34829 -0.1394334,2.68611 -0.66271794,4.64589 -1.65359081,6.19286 -0.54856769,0.85646 -1.52785829,1.84783 -2.40080759,2.43044 -1.1839365,0.79018 -2.8034547,1.34107 -4.6200461,1.57154 -0.7863933,0.0998 -1.4264194,0.14179 -3.5078088,0.23035 -1.060647,0.0451 -13.766982,0.0683 -15.656822,0.0286 z m 8.709639,-7.85068 c 2.566845,-0.35964 4.647972,-1.2442 6.625901,-2.81626 0.47952,-0.38112 1.5579127,-1.45951 1.9390413,-1.93905 1.6753808,-2.10791 2.6385105,-4.50423 2.8682381,-7.13636 0.052265,-0.59863 0.021798,-2.20603 -0.051915,-2.74067 -0.2174275,-1.57674 -0.6311755,-2.9149 -1.3226608,-4.27782 -1.8379963,-3.622707 -5.2750686,-6.201959 -9.2543446,-6.944658 -0.752698,-0.140484 -1.160606,-0.178744 -2.107548,-0.197676 -1.546506,-0.03091 -2.617202,0.105436 -4.001181,0.509557 -0.99771,0.29133 -2.189167,0.815337 -3.071921,1.351039 -1.498802,0.909556 -2.888215,2.201347 -3.900126,3.626108 -1.288457,1.81412 -2.056219,3.82551 -2.343237,6.13878 -0.05971,0.48106 -0.05989,2.39083 -3.94e-4,2.87471 0.322254,2.61765 1.27529,4.87207 2.906583,6.87556 0.408801,0.50207 1.378698,1.4612 1.891679,1.87066 1.988145,1.58694 4.316649,2.55794 6.758953,2.8185 0.188222,0.02 0.396125,0.0427 0.462003,0.0502 0.311967,0.0359 2.226733,-0.0104 2.600918,-0.0627 z m -2.600911,-4.55349 c -1.902167,-0.2308 -3.612075,-1.05779 -4.973563,-2.40547 -1.631214,-1.61466 -2.521182,-3.74347 -2.521182,-6.03069 0,-1.34594 0.284111,-2.55442 0.889031,-3.78159 0.805207,-1.63348 2.184379,-3.01251 3.816573,-3.8162 1.239248,-0.61021 2.426362,-0.88941 3.781599,-0.88941 2.690854,0 5.156244,1.2307 6.78975,3.38939 0.652136,0.8618 1.162393,1.91137 1.425686,2.93251 0.212429,0.82391 0.252568,1.16796 0.252568,2.1653 0,0.77797 -0.01059,0.96786 -0.07458,1.3357 -0.163194,0.93786 -0.374423,1.59195 -0.778795,2.41167 -1.06379,2.15642 -2.949787,3.73978 -5.257726,4.41402 -0.477867,0.13961 -0.82775,0.20856 -1.398432,0.27558 -0.511202,0.06 -1.45263,0.0597 -1.950894,-7.6e-4 z M -4.9016054,97.850283 c 0.3557579,-0.08971 0.900071,-0.36277 1.1797868,-0.59185 0.65181,-0.533808 1.0713796,-1.357996 1.1193545,-2.198785 0.050251,-0.880618 -0.2624434,-1.691335 -0.8971382,-2.326017 -0.6166778,-0.616674 -1.2851388,-0.889264 -2.1720078,-0.885725 -0.5549672,0.0022 -0.8507215,0.06996 -1.3251471,0.303487 -0.7970475,0.392345 -1.3893528,1.117283 -1.6212165,1.984245 -0.106963,0.399975 -0.1076457,1.087589 -0.00176,1.486394 0.3239266,1.216593 1.2960384,2.100934 2.5213663,2.293734 0.295124,0.04639 0.8794802,0.01445 1.1964642,-0.06548 z"
       id="path2577" />
  </g>
</svg>
