<?xml version="1.0" encoding="UTF-8" standalone="no"?>
<!-- Created with Inkscape (http://www.inkscape.org/) -->

<svg
   width="79.792877mm"
   height="79.792877mm"
   viewBox="0 0 79.792876 79.792874"
   version="1.1"
   id="svg5"
   inkscape:version="1.1.1 (1:1.1+202109281949+c3084ef5ed)"
   sodipodi:docname="twitter.svg"
   xmlns:inkscape="http://www.inkscape.org/namespaces/inkscape"
   xmlns:sodipodi="http://sodipodi.sourceforge.net/DTD/sodipodi-0.dtd"
   xmlns="http://www.w3.org/2000/svg"
   xmlns:svg="http://www.w3.org/2000/svg">
  <sodipodi:namedview
     id="namedview7"
     pagecolor="#ffffff"
     bordercolor="#666666"
     borderopacity="1.0"
     inkscape:pageshadow="2"
     inkscape:pageopacity="0.0"
     inkscape:pagecheckerboard="0"
     inkscape:document-units="mm"
     showgrid="false"
     inkscape:zoom="1.327371"
     inkscape:cx="279.87654"
     inkscape:cy="169.88468"
     inkscape:window-width="1860"
     inkscape:window-height="1016"
     inkscape:window-x="60"
     inkscape:window-y="27"
     inkscape:window-maximized="1"
     inkscape:current-layer="layer1" />
  <defs
     id="defs2" />
  <g
     inkscape:label="Layer 1"
     inkscape:groupmode="layer"
     id="layer1"
     transform="translate(59.399446,-68.077293)">
    <path
       style="fill:#000000;fill-opacity:1;stroke-width:0.316017"
       d="m -39.39438,139.28075 c -4.795898,-0.753 -9.396189,-2.28507 -13.945444,-4.64434 l -2.918055,-1.51332 4.266239,-0.21849 c 3.140041,-0.16081 5.01704,-0.43477 7.1104,-1.03779 3.255392,-0.93777 7.446053,-2.84692 9.522742,-4.33828 l 1.421712,-1.021 -2.330214,-0.49659 c -5.273672,-1.12386 -9.523545,-4.5642 -11.470795,-9.28578 l -0.50689,-1.22908 1.330495,0.21276 c 1.409804,0.22544 5.035118,-0.0678 5.035118,-0.4074 0,-0.1106 -0.746592,-0.4651 -1.659093,-0.78786 -4.433788,-1.56829 -7.983069,-5.31798 -9.412865,-9.94439 -0.642582,-2.07921 -0.827027,-4.46996 -0.344853,-4.46996 0.151716,0 0.898308,0.27506 1.659094,0.61122 0.760786,0.33618 2.165391,0.71132 3.121345,0.83365 l 1.738098,0.22244 -1.450327,-1.28986 c -5.031198,-4.474527 -6.64265,-11.645094 -4.008631,-17.837426 0.351182,-0.825591 0.656554,-1.500486 0.678602,-1.499757 0.02205,7.16e-4 1.604376,1.529713 3.516285,3.397763 7.446454,7.275603 16.262474,11.438067 26.608556,12.56313 l 1.959171,0.213045 -0.186495,-2.224482 c -0.384843,-4.590429 1.224493,-9.004279 4.466788,-12.250831 3.141902,-3.146047 6.5342517,-4.533646 11.1000955,-4.540362 3.95320482,-0.0059 7.2258908,1.195522 10.0055005,3.672823 0.9939612,0.885849 1.3405957,1.019574 2.2121251,0.853349 1.4735489,-0.28103 5.1915149,-1.630007 6.9902279,-2.536232 0.842879,-0.424665 1.581059,-0.723561 1.6404,-0.66422 0.228535,0.228536 -1.193482,2.965849 -2.28277,4.394217 -0.628187,0.823728 -1.759381,1.960162 -2.513763,2.525399 -0.754385,0.565237 -1.313345,1.08597 -1.24213,1.15718 0.208493,0.208494 3.633209,-0.572582 5.964819,-1.360395 1.183054,-0.399741 2.107406,-0.604473 2.054116,-0.45497 -0.274765,0.770829 -3.730953,4.559936 -5.476045,6.003533 l -1.995766,1.650945 -0.02383,2.96993 c -0.06669,8.317231 -2.7957403,16.780041 -7.8835562,24.447081 -2.3288047,3.50938 -7.9614678,9.14685 -11.456952,11.46673 -4.4712218,2.96746 -9.1803138,4.9665 -14.8170848,6.28994 -3.039998,0.71375 -13.295547,1.06709 -16.476372,0.56768 z"
       id="path869" />
  </g>
</svg>
