<?xml version="1.0" encoding="UTF-8" standalone="no"?>
<!-- Created with Inkscape (http://www.inkscape.org/) -->

<svg
   width="16.788557mm"
   height="16.475077mm"
   viewBox="0 0 16.788557 16.475077"
   version="1.1"
   id="svg5"
   inkscape:version="1.1.1 (1:1.1+202109281949+c3084ef5ed)"
   sodipodi:docname="settings.svg"
   xmlns:inkscape="http://www.inkscape.org/namespaces/inkscape"
   xmlns:sodipodi="http://sodipodi.sourceforge.net/DTD/sodipodi-0.dtd"
   xmlns="http://www.w3.org/2000/svg"
   xmlns:svg="http://www.w3.org/2000/svg">
  <sodipodi:namedview
     id="namedview7"
     pagecolor="#ffffff"
     bordercolor="#666666"
     borderopacity="1.0"
     inkscape:pageshadow="2"
     inkscape:pageopacity="0.0"
     inkscape:pagecheckerboard="0"
     inkscape:document-units="mm"
     showgrid="false"
     inkscape:zoom="2.6547418"
     inkscape:cx="94.171116"
     inkscape:cy="31.829837"
     inkscape:window-width="1860"
     inkscape:window-height="1016"
     inkscape:window-x="60"
     inkscape:window-y="27"
     inkscape:window-maximized="1"
     inkscape:current-layer="layer1" />
  <defs
     id="defs2" />
  <g
     inkscape:label="Layer 1"
     inkscape:groupmode="layer"
     id="layer1"
     transform="translate(-49.115567,-92.766796)">
    <g
       id="g862"
       transform="matrix(0.13164484,0,0,0.13164484,45.225845,87.302516)"
       style="fill:#e6e6e6">
      <path
         style="fill:#e6e6e6;stroke-width:0.264583"
         d="m 85.247956,166.02429 c -0.880703,-0.8807 -2.468409,-4.10658 -5.288825,-10.74575 l -2.416575,-5.68854 -2.63263,-1.10447 c -1.447946,-0.60746 -2.81662,-1.11348 -3.041497,-1.12448 -0.224875,-0.011 -2.308468,0.82057 -4.630208,1.84794 -4.615678,2.04245 -8.6917,3.6609 -10.988898,4.36332 -1.37551,0.42059 -1.538457,0.4216 -2.395818,0.0148 -0.505962,-0.24009 -3.217569,-2.74519 -6.025793,-5.56687 l -5.105863,-5.13035 0.188079,-1.14783 c 0.247455,-1.51021 1.988439,-6.14044 4.445408,-11.82277 l 1.984444,-4.5895 -1.20768,-2.85365 c -1.062215,-2.50993 -1.306129,-2.88655 -2.024992,-3.12675 -6.51538,-2.17703 -14.097172,-5.34631 -15.682394,-6.55542 l -0.877625,-0.6694 v -7.74563 c 0,-7.69399 0.004,-7.749269 0.595312,-8.292765 0.98026,-0.900946 4.748634,-2.665966 10.914063,-5.111899 l 5.820833,-2.309225 1.123874,-2.610424 c 0.68028,-1.580086 1.079375,-2.871502 1.011134,-3.271882 -0.06201,-0.363802 -1.180645,-2.983177 -2.485861,-5.820834 -2.631609,-5.72135 -4.014772,-9.398428 -4.014772,-10.673105 0,-0.74096 0.607775,-1.445467 5.09323,-5.903874 2.801276,-2.784384 5.374738,-5.205731 5.718802,-5.380772 1.252405,-0.637153 4.674012,0.388423 13.627682,4.084693 2.3095,0.953411 4.452625,1.724471 4.7625,1.713465 0.309877,-0.01101 1.739334,-0.517021 3.176572,-1.124479 2.355482,-0.99556 2.647288,-1.195784 2.959261,-2.030511 1.569646,-4.199818 4.576464,-11.576492 5.322814,-13.058546 0.504089,-1.000987 1.200263,-2.103715 1.547055,-2.450507 l 0.630532,-0.63053 h 7.66459 7.66459 l 0.74796,0.75387 c 0.9712,0.978887 2.58072,4.254184 5.15534,10.490921 1.1414,2.764896 2.1761,5.205677 2.29933,5.423959 0.34398,0.609266 5.60987,2.69982 6.33938,2.516726 0.33735,-0.08467 2.36202,-0.934092 4.49926,-1.887603 3.82866,-1.708122 8.93288,-3.710532 11.05773,-4.338005 0.91846,-0.271225 1.22748,-0.25388 1.99894,0.112203 0.50189,0.238163 3.21017,2.741677 6.01839,5.563364 l 5.10587,5.130341 -0.19036,1.147841 c -0.25599,1.543652 -1.196,4.078128 -3.9094,10.540549 -1.25256,2.983177 -2.31328,5.550347 -2.35716,5.704822 -0.0439,0.154477 0.43985,1.532228 1.07497,3.061671 l 1.15475,2.780802 5.59212,2.065748 c 6.19375,2.287987 10.29144,4.10274 11.20781,4.963623 0.59973,0.563412 0.60203,0.595199 0.60203,8.311193 v 7.74563 l -0.8599,0.64606 c -1.394,1.04735 -4.46956,2.48862 -10.38489,4.86656 -3.05594,1.22848 -5.69177,2.29032 -5.85741,2.35966 -0.31674,0.13259 -2.47697,5.14176 -2.47697,5.74363 0,0.19231 1.17467,2.8987 2.61037,6.0142 2.85046,6.1855 4.00421,9.24156 4.00421,10.60631 0,0.79652 -0.50474,1.38584 -5.09323,5.94665 -2.80127,2.78439 -5.37473,5.20574 -5.7188,5.38078 -1.2524,0.63715 -4.67401,-0.38843 -13.62768,-4.0847 -2.3095,-0.95341 -4.45263,-1.72447 -4.7625,-1.71346 -0.30988,0.011 -1.73485,0.51702 -3.16662,1.12448 l -2.6032,1.10447 -2.09198,5.42395 c -2.41847,6.2705 -4.17504,10.04228 -5.11419,10.98142 l -0.66024,0.66025 h -7.696974 -7.69697 z m 13.85356,-41.1683 c 6.109064,-1.73586 11.119844,-5.8243 13.787114,-11.24933 1.84281,-3.74815 2.22442,-5.3822 2.22442,-9.525 0,-3.85841 -0.36618,-5.622083 -1.82243,-8.777456 -3.59483,-7.789196 -11.51777,-12.799862 -20.212042,-12.782606 -4.973431,0.0099 -11.006315,2.404216 -14.663614,5.819727 -8.923353,8.333428 -9.411785,21.551065 -1.123164,30.394375 3.154167,3.36525 7.673727,5.76532 12.535538,6.65686 2.053198,0.37652 7.085359,0.0854 9.274178,-0.53657 z"
         id="path836" />
    </g>
  </g>
</svg>
