<?xml version="1.0" encoding="UTF-8" standalone="no"?>
<!-- Created with Inkscape (http://www.inkscape.org/) -->

<svg
   width="26.586689mm"
   height="26.586689mm"
   viewBox="0 0 26.586689 26.586688"
   version="1.1"
   id="svg5"
   inkscape:version="1.1.1 (1:1.1+202109281949+c3084ef5ed)"
   sodipodi:docname="3d.svg"
   xmlns:inkscape="http://www.inkscape.org/namespaces/inkscape"
   xmlns:sodipodi="http://sodipodi.sourceforge.net/DTD/sodipodi-0.dtd"
   xmlns="http://www.w3.org/2000/svg"
   xmlns:svg="http://www.w3.org/2000/svg">
  <sodipodi:namedview
     id="namedview7"
     pagecolor="#ffffff"
     bordercolor="#666666"
     borderopacity="1.0"
     inkscape:pageshadow="2"
     inkscape:pageopacity="0.0"
     inkscape:pagecheckerboard="0"
     inkscape:document-units="mm"
     showgrid="false"
     inkscape:zoom="2.654742"
     inkscape:cx="10.547164"
     inkscape:cy="75.148544"
     inkscape:window-width="1860"
     inkscape:window-height="1016"
     inkscape:window-x="60"
     inkscape:window-y="27"
     inkscape:window-maximized="1"
     inkscape:current-layer="layer1"
     inkscape:snap-global="false" />
  <defs
     id="defs2" />
  <g
     inkscape:label="Layer 1"
     inkscape:groupmode="layer"
     id="layer1"
     transform="translate(1.2620032,-50.456589)">
    <rect
       style="opacity:1;fill:#f2ddde;stroke-width:1.746;stroke-linecap:round;stroke-linejoin:round;fill-opacity:1"
       id="rect851"
       width="26.586689"
       height="26.586689"
       x="-1.2620032"
       y="50.456589"
       ry="2.5778265" />
    <path
       style="fill:#6e36dc;stroke-width:0.129202;fill-opacity:1"
       d="m 0.1231508,75.845316 v -1.162825 h 4.8492676 c 6.0473836,0 6.0037886,0.01225 6.0037886,-1.671146 v -0.783716 h 1.244029 1.244028 l -0.059,1.01924 c -0.07249,1.25204 -0.516926,2.250106 -1.30076,2.921033 -0.941205,0.805638 -1.225396,0.840239 -6.9012785,0.840239 H 0.12314733 Z"
       id="path253"
       sodipodi:nodetypes="ccsscccssscc" />
    <path
       style="fill:#cca240;fill-opacity:1;stroke-width:0.0829993"
       d="m 7.0065398,51.003649 c -0.1921049,0.19574 -0.3492821,0.393387 -0.3492821,0.439216 0,0.04584 0.1682683,0.248469 0.3739297,0.450308 l 0.3739294,0.366985 -0.4156825,0.420912 -0.4156852,0.420911 0.4153869,0.409142 0.4153882,0.409141 -0.3912611,0.397236 -0.3912649,0.397235 0.3912649,0.397236 0.3912611,0.397235 -0.4153882,0.40914 -0.4153869,0.409141 0.4155087,0.420737 0.4155072,0.420734 -0.4155072,0.40926 -0.4155087,0.40926 0.4144985,0.419714 0.4145001,0.41971 -0.3913802,0.391379 -0.3913799,0.391381 0.3922682,0.398257 0.3922684,0.398257 -0.4152664,0.409022 -0.4152678,0.409022 0.3912637,0.397235 c 0.3464245,0.351713 0.4320427,0.397236 0.7471273,0.397236 h 0.3558701 v 1.203491 1.203493 H 6.2007628 4.3332718 v 1.950489 1.950489 h 0.9759099 0.9759044 l 1.9491642,1.950488 1.9491627,1.950488 h 1.918627 1.918625 l 1.941348,-1.950488 1.941345,-1.950488 h 0.97541 0.975412 v -1.950489 -1.950489 h -1.867487 -1.86749 v -1.203493 -1.203491 h 0.355868 c 0.315085,0 0.400706,-0.04551 0.747129,-0.397236 l 0.391263,-0.397235 -0.415389,-0.409141 -0.415386,-0.409142 0.417621,-0.422874 0.417622,-0.422873 -0.317169,-0.285492 c -0.495089,-0.44564 -0.496671,-0.46573 -0.07073,-0.898165 l 0.383439,-0.389294 -0.415389,-0.40914 -0.415385,-0.409141 0.415508,-0.420734 0.415507,-0.420737 -0.411519,-0.405333 -0.411523,-0.405333 0.403551,-0.39101 0.403552,-0.391013 L 17.190229,54.333386 16.782692,53.931977 17.1982,53.511243 17.613707,53.090508 17.1982,52.681247 16.782692,52.271987 17.1982,51.851253 17.613707,51.430517 17.216354,51.039139 16.819001,50.64776 H 12.087407 7.3558191 Z"
       id="path54"
       sodipodi:nodetypes="ssscccccccccccccccccccccccsscccccccccccccccccccccccsscccccsscccccccccccccccccccccs" />
  </g>
</svg>
