<?xml version="1.0" encoding="UTF-8" standalone="no"?>
<!-- Created with Inkscape (http://www.inkscape.org/) -->

<svg
   width="35.678581mm"
   height="35.678581mm"
   viewBox="0 0 35.678581 35.678579"
   version="1.1"
   id="svg5"
   inkscape:version="1.1.1 (1:1.1+202109281949+c3084ef5ed)"
   sodipodi:docname="electronics.svg"
   xmlns:inkscape="http://www.inkscape.org/namespaces/inkscape"
   xmlns:sodipodi="http://sodipodi.sourceforge.net/DTD/sodipodi-0.dtd"
   xmlns="http://www.w3.org/2000/svg"
   xmlns:svg="http://www.w3.org/2000/svg">
  <sodipodi:namedview
     id="namedview7"
     pagecolor="#ffffff"
     bordercolor="#150505"
     borderopacity="1"
     inkscape:pageshadow="2"
     inkscape:pageopacity="0"
     inkscape:pagecheckerboard="0"
     inkscape:document-units="mm"
     showgrid="false"
     inkscape:zoom="5.309484"
     inkscape:cx="60.552024"
     inkscape:cy="61.682077"
     inkscape:window-width="1860"
     inkscape:window-height="1016"
     inkscape:window-x="60"
     inkscape:window-y="27"
     inkscape:window-maximized="1"
     inkscape:current-layer="layer1"
     showborder="true"
     inkscape:showpageshadow="true" />
  <defs
     id="defs2">
    <clipPath
       clipPathUnits="userSpaceOnUse"
       id="clipPath43707">
      <rect
         style="opacity:1;fill:#8cdbff;fill-opacity:1;stroke-width:3.16915;stroke-linecap:round;stroke-linejoin:round"
         id="rect43709"
         width="48.257256"
         height="48.257256"
         x="48.294296"
         y="34.131138"
         ry="4.6789894" />
    </clipPath>
  </defs>
  <g
     inkscape:label="Layer 1"
     inkscape:groupmode="layer"
     id="layer1"
     transform="translate(5.1407542,-46.445019)">
    <rect
       style="fill:#ff9955;fill-opacity:1;stroke:none;stroke-width:2.18906;stroke-linecap:round;stroke-linejoin:round"
       id="rect44950"
       width="35.678581"
       height="35.678581"
       x="-5.1407542"
       y="46.445019"
       ry="3.2319665" />
    <path
       style="fill:#000000;stroke-width:0.0418219"
       d="m 6.2662288,77.889147 -0.470499,-0.22591 v -1.736045 -1.736044 h 0.9205423 0.9205422 l -0.010914,1.743491 -0.010914,1.743489 -0.4182187,0.220947 C 6.9667481,78.020596 6.7691352,78.118903 6.757638,78.117538 6.746141,78.116138 6.5075104,77.733631 6.2662288,77.889147 Z m 3.8033392,-0.01304 -0.4680361,-0.232936 v -1.726009 -1.726014 h 0.9414531 0.941454 l -0.01092,1.740847 -0.01092,1.740848 -0.462498,0.218102 -0.462504,0.218099 z m 3.850087,0.0072 -0.512321,-0.231311 v -1.730401 -1.730407 h 0.982814 0.98282 v 1.735264 1.735264 l -0.459346,0.23037 c -0.252641,0.12669 -0.464365,0.228594 -0.470499,0.22644 -0.0061,-0.0022 -0.241693,-0.108008 -0.523468,-0.235229 z m 3.907673,0.0026 -0.446904,-0.224193 V 75.92643 74.191187 h 0.920542 0.920543 l -0.01092,1.742301 -0.01092,1.742299 -0.462725,0.217138 -0.462726,0.217137 z M 5.5509966,73.423158 C 4.4813114,73.265275 3.6784902,72.434553 3.5336077,71.335654 3.5068197,71.13244 3.4967227,68.585522 3.5054187,64.223006 c 0.012781,-6.398767 0.017976,-6.810574 0.088745,-7.044098 0.2589326,-0.854179 0.8502692,-1.481012 1.6503065,-1.749358 l 0.2794059,-0.09372 h 6.9842699 6.984277 l 0.30645,0.100386 c 0.742546,0.243241 1.297342,0.80201 1.588957,1.600323 l 0.112049,0.306747 0.01114,6.952132 c 0.01237,7.699319 0.02638,7.275541 -0.259575,7.852855 -0.280929,0.567164 -0.746899,0.965645 -1.38266,1.182408 l -0.334576,0.114073 -6.879716,0.0057 c -3.7838456,0.0032 -6.9804408,-0.0092 -7.1035428,-0.02732 z m -6.47937023,-2.738211 -0.22664707,-0.480509 0.22049577,-0.491852 0.2204957,-0.491852 1.74202743,-0.01091 1.7420276,-0.01093 v 0.983277 0.983276 H 1.0341554 -0.70172083 Z M 22.246296,70.182641 v -0.982818 h 1.788618 1.788617 l 0.156106,0.45356 c 0.08586,0.249459 0.15614,0.498821 0.156186,0.554141 4.1e-5,0.05532 -0.06982,0.293485 -0.155258,0.529257 l -0.155353,0.428675 h -1.789458 -1.789458 z m -23.17751193,-3.408493 -0.23072057,-0.460043 0.23072057,-0.460041 0.2307149,-0.460042 H 1.0347624 2.7700258 v 0.920083 0.920084 H 1.0347624 -0.70050103 Z M 22.246296,66.314104 V 65.39402 h 1.79439 1.794389 l 0.132486,0.365943 c 0.19636,0.542369 0.196358,0.542386 0.02125,1.033875 l -0.156888,0.44035 H 24.039104 22.24629 Z m -23.17872583,-3.359953 -0.22542127,-0.474235 0.22458667,-0.435394 0.2245927,-0.435393 1.73934883,-0.01091 1.7393487,-0.01092 v 0.920543 0.920543 h -1.73852 -1.73851993 z M 22.246296,62.508303 v -0.920085 h 1.792685 1.792686 l 0.152038,0.402103 c 0.08362,0.221156 0.152072,0.44229 0.152118,0.491408 4.1e-5,0.04912 -0.06982,0.28221 -0.155258,0.517982 l -0.155353,0.428676 h -1.789458 -1.789458 z m -23.18266523,-3.375624 -0.21425687,-0.442307 0.22313377,-0.474888 0.2231394,-0.474888 H 1.0328364 2.7700258 v 0.920083 0.920084 l -1.7460662,-0.003 -1.74606613,-0.003 -0.2142627,-0.442306 z M 22.246296,58.66023 v -0.920533 l 1.786762,0.01091 1.786773,0.01091 0.155609,0.39731 c 0.08559,0.21852 0.156666,0.449265 0.157956,0.512767 0.0011,0.0635 -0.310586,0.342928 -0.149557,0.51232 l -0.151904,0.396853 h -1.792819 -1.79282 z m -16.4504028,-5.733228 1.576e-4,-1.78789 0.4803504,-0.174337 0.4803563,-0.174336 0.4395673,0.16997 0.4395674,0.16997 v 1.792256 1.792258 H 6.715811 5.7957298 l 1.576e-4,-1.787891 z m 3.8056387,0.0083 v -1.779568 l 0.156368,-0.06533 c 0.086002,-0.03593 0.3898471,-0.0146 0.4704991,-0.179872 l 0.314125,-0.114537 0.470406,0.17155 0.470399,0.171551 9.4e-5,1.78789 9.9e-5,1.787891 H 10.542524 9.6015319 Z m 3.8058021,0.0036 c 0,-1.648745 0.0053,-1.778741 0.07318,-1.81473 0.04027,-0.02132 0.385545,0.0365 0.537077,-0.183705 l 0.463887,-0.144939 0.445742,0.16629 0.445743,0.166291 v 1.793378 1.793378 h -0.98282 -0.982814 z m 3.97309,-0.01713 V 51.12873 l 0.422812,-0.158596 c 0.232541,-0.08723 0.445252,-0.158595 0.472681,-0.158595 0.02743,0 0.251205,0.073 0.497276,0.162231 l 0.447399,0.162234 v 1.78946 1.789461 h -0.920087 -0.920081 z"
       id="path45652"
       sodipodi:nodetypes="scccccccscscccccccccccccccccccccccccccccccccccsccscccssccsscccccccccccccccccccssccccccccccccccccccccsscccccccccccccccccccsscccccccccccccccccccccccsccccccccccccccccccssccccccccccscccccccccccsscccccc" />
    <path
       id="text48372"
       style="font-size:3.02161px;line-height:1.25;font-family:Ubuntu;-inkscape-font-specification:Ubuntu;stroke-width:0.285507;fill:#ffffff"
       d="M 57.507812 46.414062 C 56.997709 46.414062 56.519509 46.517092 56.070312 46.722656 C 55.62873 46.920607 55.239291 47.174174 54.904297 47.486328 L 55.75 48.673828 C 55.803295 48.620534 55.883645 48.552499 55.990234 48.46875 C 56.096823 48.377388 56.222531 48.29078 56.367188 48.207031 C 56.519457 48.115669 56.682311 48.039424 56.857422 47.978516 C 57.040146 47.909994 57.233888 47.875 57.439453 47.875 C 57.721153 47.875 57.9581 47.943035 58.148438 48.080078 C 58.338774 48.217121 58.433594 48.454069 58.433594 48.789062 C 58.433594 48.941333 58.3986 49.093824 58.330078 49.246094 C 58.261557 49.39075 58.166738 49.539136 58.044922 49.691406 C 57.923106 49.836063 57.78293 49.988554 57.623047 50.148438 C 57.463163 50.300707 57.292099 50.463561 57.109375 50.638672 C 56.873356 50.867077 56.632304 51.095814 56.388672 51.324219 C 56.152653 51.552624 55.940338 51.799934 55.75 52.066406 C 55.559662 52.325265 55.403066 52.607569 55.28125 52.912109 C 55.167047 53.21665 55.109375 53.550567 55.109375 53.916016 L 55.109375 54.191406 C 55.109375 54.320836 55.117586 54.426017 55.132812 54.509766 L 60.408203 54.509766 L 60.408203 53.082031 L 57.005859 53.082031 C 57.0287 53.005896 57.086372 52.911078 57.177734 52.796875 C 57.27671 52.675059 57.385997 52.545246 57.507812 52.408203 C 57.629629 52.27116 57.755336 52.139195 57.884766 52.009766 C 58.021809 51.872723 58.147516 51.75112 58.261719 51.644531 C 58.48251 51.438967 58.707142 51.220592 58.935547 50.992188 C 59.163952 50.763782 59.37001 50.528788 59.552734 50.285156 C 59.735459 50.033911 59.883844 49.774285 59.998047 49.507812 C 60.112249 49.241341 60.169922 48.963141 60.169922 48.673828 C 60.169922 48.323607 60.116355 48.012367 60.009766 47.738281 C 59.91079 47.456582 59.750089 47.219635 59.529297 47.029297 C 59.316119 46.831346 59.042025 46.680808 58.707031 46.574219 C 58.372037 46.46763 57.972236 46.414063 57.507812 46.414062 z M 88.560547 46.414062 C 88.050442 46.414062 87.570291 46.517092 87.121094 46.722656 C 86.67951 46.920607 86.292025 47.174174 85.957031 47.486328 L 86.800781 48.673828 C 86.854076 48.620534 86.934427 48.552499 87.041016 48.46875 C 87.147605 48.377388 87.273312 48.29078 87.417969 48.207031 C 87.570239 48.115669 87.733092 48.039424 87.908203 47.978516 C 88.090927 47.909994 88.286623 47.875 88.492188 47.875 C 88.773886 47.875 89.008881 47.943035 89.199219 48.080078 C 89.389556 48.217121 89.484375 48.454069 89.484375 48.789062 C 89.484375 48.941333 89.451334 49.093824 89.382812 49.246094 C 89.314292 49.39075 89.219472 49.539136 89.097656 49.691406 C 88.97584 49.836063 88.833712 49.988554 88.673828 50.148438 C 88.513945 50.300707 88.34288 50.463561 88.160156 50.638672 C 87.924138 50.867077 87.685038 51.095814 87.441406 51.324219 C 87.205388 51.552624 86.991119 51.799934 86.800781 52.066406 C 86.610444 52.325265 86.4558 52.607569 86.333984 52.912109 C 86.219782 53.21665 86.162109 53.550567 86.162109 53.916016 L 86.162109 54.191406 C 86.162109 54.320836 86.17032 54.426017 86.185547 54.509766 L 91.460938 54.509766 L 91.460938 53.082031 L 88.056641 53.082031 C 88.079481 53.005896 88.137154 52.911078 88.228516 52.796875 C 88.327491 52.675059 88.438731 52.545246 88.560547 52.408203 C 88.682363 52.27116 88.80807 52.139195 88.9375 52.009766 C 89.074543 51.872723 89.200251 51.75112 89.314453 51.644531 C 89.535245 51.438967 89.759876 51.220592 89.988281 50.992188 C 90.216686 50.763782 90.420791 50.528788 90.603516 50.285156 C 90.78624 50.033911 90.934626 49.774285 91.048828 49.507812 C 91.163031 49.241341 91.220703 48.963141 91.220703 48.673828 C 91.220703 48.323607 91.167136 48.012367 91.060547 47.738281 C 90.961571 47.456582 90.802823 47.219635 90.582031 47.029297 C 90.368853 46.831346 90.09476 46.680808 89.759766 46.574219 C 89.424771 46.46763 89.024971 46.414063 88.560547 46.414062 z M 42.261719 46.595703 L 42.261719 48.115234 L 44.648438 48.115234 L 44.648438 54.509766 L 46.431641 54.509766 L 46.431641 48.115234 L 48.818359 48.115234 L 48.818359 46.595703 L 42.261719 46.595703 z M 74.101562 46.595703 C 73.835091 47.143876 73.577418 47.708483 73.326172 48.287109 C 73.08254 48.858122 72.831125 49.462029 72.572266 50.101562 C 72.32102 50.741097 72.061395 51.423201 71.794922 52.146484 C 71.528449 52.869767 71.246145 53.657053 70.949219 54.509766 L 72.800781 54.509766 C 72.88453 54.235679 72.975243 53.955329 73.074219 53.666016 C 73.180808 53.376702 73.283838 53.086188 73.382812 52.796875 L 76.466797 52.796875 L 76.763672 53.666016 C 76.870261 53.955329 76.96508 54.235679 77.048828 54.509766 L 78.955078 54.509766 C 78.658151 53.657053 78.377801 52.869767 78.111328 52.146484 C 77.844855 51.423201 77.581125 50.741097 77.322266 50.101562 C 77.07102 49.462029 76.819605 48.858122 76.568359 48.287109 C 76.317114 47.708483 76.061594 47.143876 75.802734 46.595703 L 74.101562 46.595703 z M 82.484375 46.595703 C 82.316878 46.770814 82.127241 46.939726 81.914062 47.099609 C 81.708499 47.251879 81.490124 47.400265 81.261719 47.544922 C 81.033314 47.681965 80.798319 47.809825 80.554688 47.931641 C 80.318669 48.045843 80.089932 48.148872 79.869141 48.240234 L 80.382812 49.554688 C 80.649285 49.463325 80.923378 49.356191 81.205078 49.234375 C 81.486778 49.104945 81.742298 48.96477 81.970703 48.8125 L 81.970703 54.509766 L 83.671875 54.509766 L 83.671875 46.595703 L 82.484375 46.595703 z M 51.146484 48.34375 C 50.948533 48.34375 50.750686 48.354113 50.552734 48.376953 C 50.362397 48.39218 50.18097 48.414859 50.005859 48.445312 C 49.830749 48.468153 49.665942 48.499042 49.513672 48.537109 C 49.369015 48.567563 49.247412 48.598452 49.148438 48.628906 L 49.365234 50 C 49.570799 49.923865 49.814003 49.866193 50.095703 49.828125 C 50.377403 49.782444 50.663812 49.759766 50.953125 49.759766 C 51.387095 49.759766 51.692077 49.846374 51.867188 50.021484 C 52.042297 50.196595 52.128906 50.429437 52.128906 50.71875 L 52.128906 50.878906 C 52.022317 50.848452 51.882142 50.825774 51.707031 50.810547 C 51.539534 50.787706 51.345792 50.775391 51.125 50.775391 C 50.797619 50.775391 50.480321 50.810385 50.175781 50.878906 C 49.871241 50.939814 49.601253 51.042843 49.365234 51.1875 C 49.129216 51.332157 48.939578 51.525899 48.794922 51.769531 C 48.657879 52.013163 48.589844 52.309935 48.589844 52.660156 C 48.589844 53.025605 48.649668 53.334692 48.771484 53.585938 C 48.8933 53.837182 49.06847 54.041288 49.296875 54.201172 C 49.52528 54.353442 49.795268 54.464682 50.107422 54.533203 C 50.427189 54.601725 50.781633 54.636719 51.169922 54.636719 C 51.786616 54.636719 52.312124 54.597619 52.746094 54.521484 C 53.180064 54.452963 53.518087 54.393138 53.761719 54.339844 L 53.761719 50.798828 C 53.761719 50.425766 53.720467 50.087743 53.636719 49.783203 C 53.55297 49.478663 53.40869 49.219038 53.203125 49.005859 C 53.005174 48.792681 52.739291 48.629828 52.404297 48.515625 C 52.069303 48.401422 51.648976 48.34375 51.146484 48.34375 z M 64.257812 48.367188 C 64.037022 48.367188 63.81239 48.37755 63.583984 48.400391 C 63.355579 48.415618 63.130948 48.442401 62.910156 48.480469 C 62.696978 48.510923 62.49092 48.550022 62.292969 48.595703 C 62.102631 48.633771 61.935672 48.670917 61.791016 48.708984 L 61.791016 54.509766 L 63.492188 54.509766 L 63.492188 49.873047 C 63.598776 49.85782 63.710016 49.847457 63.824219 49.839844 C 63.938421 49.824617 64.047708 49.816406 64.154297 49.816406 C 64.496905 49.816406 64.737957 49.931751 64.875 50.160156 C 65.019657 50.388561 65.091797 50.776046 65.091797 51.324219 L 65.091797 54.509766 L 66.792969 54.509766 L 66.792969 51.232422 C 66.792969 51.01163 66.784758 50.805572 66.769531 50.615234 C 66.754304 50.417283 66.721263 50.231751 66.667969 50.056641 C 66.774558 49.988119 66.906523 49.930447 67.066406 49.884766 C 67.233903 49.839085 67.363716 49.816406 67.455078 49.816406 C 67.797686 49.816406 68.038738 49.931751 68.175781 50.160156 C 68.320438 50.388561 68.392578 50.776046 68.392578 51.324219 L 68.392578 54.509766 L 70.09375 54.509766 L 70.09375 51.119141 C 70.09375 50.708011 70.058756 50.334994 69.990234 50 C 69.921713 49.665006 69.796005 49.374492 69.613281 49.130859 C 69.430557 48.887227 69.183247 48.701695 68.871094 48.572266 C 68.566554 48.435223 68.174963 48.367188 67.695312 48.367188 C 67.428841 48.367187 67.136173 48.416649 66.816406 48.515625 C 66.504253 48.614601 66.226054 48.750671 65.982422 48.925781 C 65.807311 48.773511 65.58268 48.643698 65.308594 48.537109 C 65.042121 48.422907 64.691782 48.367188 64.257812 48.367188 z M 74.912109 48.388672 C 74.95779 48.502874 75.019568 48.659471 75.095703 48.857422 C 75.171838 49.055373 75.258446 49.28411 75.357422 49.542969 C 75.464011 49.801828 75.575251 50.086284 75.689453 50.398438 C 75.803656 50.71059 75.921153 51.038252 76.042969 51.380859 L 73.792969 51.380859 C 73.914785 51.038252 74.034235 50.71059 74.148438 50.398438 C 74.270253 50.086284 74.37954 49.801828 74.478516 49.542969 C 74.577491 49.28411 74.666052 49.055373 74.742188 48.857422 C 74.818322 48.659471 74.874042 48.502874 74.912109 48.388672 z M 51.443359 51.917969 C 51.557562 51.917969 51.68327 51.926179 51.820312 51.941406 C 51.957356 51.956633 52.060385 51.971101 52.128906 51.986328 L 52.128906 53.277344 C 52.037544 53.292571 51.915942 53.302933 51.763672 53.310547 C 51.611402 53.31816 51.452653 53.322266 51.285156 53.322266 C 50.973003 53.322266 50.725693 53.272804 50.542969 53.173828 C 50.367858 53.067239 50.279297 52.881707 50.279297 52.615234 C 50.279297 52.478191 50.310186 52.362846 50.371094 52.271484 C 50.432002 52.180122 50.514505 52.107981 50.621094 52.054688 C 50.727683 52.001393 50.851238 51.968352 50.988281 51.953125 C 51.132938 51.930284 51.283476 51.917969 51.443359 51.917969 z M 45.425781 57.921875 C 45.220592 57.921875 45.028253 57.94675 44.851562 57.998047 C 44.674873 58.049344 44.515539 58.111451 44.373047 58.185547 C 44.230554 58.259643 44.108454 58.340286 44.005859 58.425781 C 43.903265 58.505577 43.826688 58.573862 43.775391 58.630859 L 44.167969 59.195312 C 44.207867 59.161115 44.265748 59.113478 44.339844 59.050781 C 44.41394 58.982385 44.504987 58.918325 44.613281 58.861328 C 44.721576 58.798631 44.843676 58.744816 44.980469 58.699219 C 45.117262 58.653621 45.268302 58.630859 45.433594 58.630859 C 45.570387 58.630859 45.698666 58.651508 45.818359 58.691406 C 45.943753 58.725604 46.051383 58.781532 46.142578 58.861328 C 46.233773 58.941124 46.306125 59.040462 46.357422 59.160156 C 46.414419 59.27985 46.443359 59.426665 46.443359 59.597656 C 46.443359 59.757248 46.410353 59.908289 46.347656 60.050781 C 46.290659 60.193274 46.21197 60.331957 46.109375 60.46875 C 46.01248 60.599843 45.898671 60.734301 45.767578 60.871094 C 45.642185 61.002187 45.507727 61.136645 45.365234 61.273438 C 45.194243 61.444428 45.020441 61.620344 44.84375 61.802734 C 44.667059 61.985125 44.507727 62.179576 44.365234 62.384766 C 44.222742 62.589955 44.104867 62.809281 44.013672 63.042969 C 43.928176 63.270957 43.886719 63.519223 43.886719 63.787109 L 43.886719 63.880859 C 43.886719 63.915058 43.888832 63.948224 43.894531 63.982422 L 47.486328 63.982422 L 47.486328 63.306641 L 44.757812 63.306641 C 44.757812 63.209746 44.795044 63.095937 44.869141 62.964844 C 44.948936 62.833751 45.046162 62.697179 45.160156 62.554688 C 45.27415 62.412195 45.394138 62.275624 45.519531 62.144531 L 45.861328 61.802734 C 46.032319 61.631743 46.204009 61.457941 46.375 61.28125 C 46.545991 61.098859 46.699145 60.916766 46.835938 60.734375 C 46.972729 60.546285 47.08036 60.358012 47.160156 60.169922 C 47.245652 59.976132 47.289063 59.777455 47.289062 59.572266 C 47.289062 59.047893 47.131843 58.642407 46.818359 58.357422 C 46.510575 58.066737 46.047049 57.921875 45.425781 57.921875 z M 50.212891 57.921875 C 50.047599 57.921875 49.888267 57.938458 49.734375 57.972656 C 49.586183 58.001155 49.445546 58.038387 49.314453 58.083984 C 49.18336 58.129582 49.065326 58.181284 48.957031 58.238281 C 48.854437 58.289579 48.767615 58.337216 48.699219 58.382812 L 49.007812 58.990234 C 49.138906 58.904739 49.298238 58.821982 49.486328 58.742188 C 49.680118 58.662392 49.913914 58.623047 50.1875 58.623047 C 50.324293 58.623047 50.452572 58.63963 50.572266 58.673828 C 50.697659 58.702327 50.805289 58.754029 50.896484 58.828125 C 50.993379 58.902221 51.069956 58.995381 51.126953 59.109375 C 51.18395 59.223369 51.212891 59.35994 51.212891 59.519531 C 51.212891 59.713321 51.173546 59.87672 51.09375 60.007812 C 51.013954 60.133206 50.91055 60.232544 50.785156 60.306641 C 50.659763 60.380737 50.521079 60.432439 50.367188 60.460938 C 50.218995 60.489435 50.074133 60.503906 49.931641 60.503906 L 49.648438 60.503906 L 49.648438 61.152344 L 49.853516 61.152344 C 50.058705 61.152344 50.259335 61.172993 50.453125 61.212891 C 50.652615 61.247089 50.826417 61.309195 50.974609 61.400391 C 51.122802 61.485886 51.240836 61.603761 51.332031 61.751953 C 51.423227 61.900145 51.46875 62.082239 51.46875 62.298828 C 51.46875 62.635111 51.359007 62.902074 51.136719 63.101562 C 50.92013 63.301052 50.558055 63.402344 50.050781 63.402344 C 49.725898 63.402344 49.448691 63.365112 49.220703 63.291016 C 48.998415 63.216919 48.839081 63.156926 48.742188 63.111328 L 48.587891 63.802734 C 48.633488 63.825533 48.707952 63.854474 48.810547 63.888672 C 48.913142 63.92287 49.033129 63.957989 49.169922 63.992188 C 49.306715 64.026385 49.451577 64.053373 49.605469 64.076172 C 49.76506 64.098971 49.920167 64.111328 50.068359 64.111328 C 50.45024 64.111328 50.779308 64.065805 51.058594 63.974609 C 51.337879 63.883414 51.569563 63.757248 51.751953 63.597656 C 51.940043 63.438065 52.076614 63.249792 52.162109 63.033203 C 52.253305 62.810915 52.298828 62.572893 52.298828 62.316406 C 52.298828 62.105517 52.265662 61.913178 52.197266 61.742188 C 52.134569 61.571196 52.047747 61.420156 51.939453 61.289062 C 51.836858 61.15797 51.714758 61.050339 51.572266 60.964844 C 51.429773 60.879348 51.280845 60.813176 51.126953 60.767578 C 51.37774 60.653584 51.59284 60.490025 51.769531 60.273438 C 51.946222 60.051149 52.033203 59.784347 52.033203 59.476562 C 52.033203 59.254275 51.995971 59.049418 51.921875 58.861328 C 51.847779 58.667538 51.738036 58.502027 51.589844 58.365234 C 51.441651 58.222742 51.253379 58.115112 51.025391 58.041016 C 50.797402 57.96122 50.526374 57.921875 50.212891 57.921875 z M 55.035156 57.921875 C 54.869865 57.921875 54.710533 57.938458 54.556641 57.972656 C 54.408448 58.001155 54.267812 58.038387 54.136719 58.083984 C 54.005626 58.129582 53.885638 58.181284 53.777344 58.238281 C 53.674749 58.289579 53.589881 58.337216 53.521484 58.382812 L 53.830078 58.990234 C 53.961171 58.904739 54.120504 58.821982 54.308594 58.742188 C 54.502384 58.662392 54.73618 58.623047 55.009766 58.623047 C 55.146559 58.623047 55.274837 58.63963 55.394531 58.673828 C 55.519925 58.702327 55.627555 58.754029 55.71875 58.828125 C 55.815645 58.902221 55.892222 58.995381 55.949219 59.109375 C 56.006216 59.223369 56.035156 59.35994 56.035156 59.519531 C 56.035156 59.713321 55.995811 59.87672 55.916016 60.007812 C 55.83622 60.133206 55.732815 60.232544 55.607422 60.306641 C 55.482028 60.380737 55.343345 60.432439 55.189453 60.460938 C 55.041261 60.489435 54.894446 60.503906 54.751953 60.503906 L 54.470703 60.503906 L 54.470703 61.152344 L 54.675781 61.152344 C 54.880971 61.152344 55.079648 61.172993 55.273438 61.212891 C 55.472926 61.247089 55.64673 61.309195 55.794922 61.400391 C 55.943114 61.485886 56.063102 61.603761 56.154297 61.751953 C 56.245492 61.900145 56.291016 62.082239 56.291016 62.298828 C 56.291016 62.635111 56.181273 62.902074 55.958984 63.101562 C 55.742396 63.301052 55.380321 63.402344 54.873047 63.402344 C 54.548164 63.402344 54.270957 63.365112 54.042969 63.291016 C 53.82068 63.216919 53.661348 63.156926 53.564453 63.111328 L 53.410156 63.802734 C 53.455754 63.825533 53.530219 63.854474 53.632812 63.888672 C 53.735407 63.92287 53.855395 63.957989 53.992188 63.992188 C 54.128979 64.026385 54.273842 64.053373 54.427734 64.076172 C 54.587326 64.098971 54.74048 64.111328 54.888672 64.111328 C 55.270552 64.111328 55.601574 64.065805 55.880859 63.974609 C 56.160145 63.883414 56.391828 63.757248 56.574219 63.597656 C 56.762309 63.438065 56.898879 63.249792 56.984375 63.033203 C 57.07557 62.810915 57.121094 62.572893 57.121094 62.316406 C 57.121094 62.105517 57.085975 61.913178 57.017578 61.742188 C 56.954881 61.571196 56.870013 61.420156 56.761719 61.289062 C 56.659124 61.15797 56.537024 61.050339 56.394531 60.964844 C 56.252039 60.879348 56.103111 60.813176 55.949219 60.767578 C 56.200006 60.653584 56.413153 60.490025 56.589844 60.273438 C 56.766535 60.051149 56.855469 59.784347 56.855469 59.476562 C 56.855469 59.254275 56.818237 59.049418 56.744141 58.861328 C 56.670044 58.667538 56.560302 58.502027 56.412109 58.365234 C 56.263917 58.222742 56.075644 58.115112 55.847656 58.041016 C 55.619668 57.96122 55.34864 57.921875 55.035156 57.921875 z M 59.857422 57.921875 C 59.69213 57.921875 59.532798 57.938458 59.378906 57.972656 C 59.230714 58.001155 59.090078 58.038387 58.958984 58.083984 C 58.827891 58.129582 58.707904 58.181284 58.599609 58.238281 C 58.497015 58.289579 58.412146 58.337216 58.34375 58.382812 L 58.650391 58.990234 C 58.781484 58.904739 58.942769 58.821982 59.130859 58.742188 C 59.324649 58.662392 59.558445 58.623047 59.832031 58.623047 C 59.968824 58.623047 60.09515 58.63963 60.214844 58.673828 C 60.340237 58.702327 60.44982 58.754029 60.541016 58.828125 C 60.637911 58.902221 60.714487 58.995381 60.771484 59.109375 C 60.828481 59.223369 60.857422 59.35994 60.857422 59.519531 C 60.857422 59.713321 60.818077 59.87672 60.738281 60.007812 C 60.658485 60.133206 60.55508 60.232544 60.429688 60.306641 C 60.304294 60.380737 60.163658 60.432439 60.009766 60.460938 C 59.861573 60.489435 59.716711 60.503906 59.574219 60.503906 L 59.292969 60.503906 L 59.292969 61.152344 L 59.498047 61.152344 C 59.703236 61.152344 59.901913 61.172993 60.095703 61.212891 C 60.295193 61.247089 60.468995 61.309195 60.617188 61.400391 C 60.765379 61.485886 60.885368 61.603761 60.976562 61.751953 C 61.067758 61.900145 61.113281 62.082239 61.113281 62.298828 C 61.113281 62.635111 61.001585 62.902074 60.779297 63.101562 C 60.562708 63.301052 60.200633 63.402344 59.693359 63.402344 C 59.368476 63.402344 59.093223 63.365112 58.865234 63.291016 C 58.642946 63.216919 58.483614 63.156926 58.386719 63.111328 L 58.232422 63.802734 C 58.27802 63.825533 58.352483 63.854474 58.455078 63.888672 C 58.557673 63.92287 58.67766 63.957989 58.814453 63.992188 C 58.951246 64.026385 59.096108 64.053373 59.25 64.076172 C 59.409592 64.098971 59.562745 64.111328 59.710938 64.111328 C 60.092817 64.111328 60.42384 64.065805 60.703125 63.974609 C 60.98241 63.883414 61.214094 63.757248 61.396484 63.597656 C 61.584575 63.438065 61.721145 63.249792 61.806641 63.033203 C 61.897836 62.810915 61.943359 62.572893 61.943359 62.316406 C 61.943359 62.105517 61.90824 61.913178 61.839844 61.742188 C 61.777147 61.571196 61.692279 61.420156 61.583984 61.289062 C 61.48139 61.15797 61.359289 61.050339 61.216797 60.964844 C 61.074304 60.879348 60.925376 60.813176 60.771484 60.767578 C 61.022271 60.653584 61.235419 60.490025 61.412109 60.273438 C 61.5888 60.051149 61.677734 59.784347 61.677734 59.476562 C 61.677734 59.254275 61.640502 59.049418 61.566406 58.861328 C 61.49231 58.667538 61.380614 58.502027 61.232422 58.365234 C 61.08423 58.222742 60.895957 58.115112 60.667969 58.041016 C 60.439981 57.96122 60.170906 57.921875 59.857422 57.921875 z M 64.712891 57.921875 C 64.507701 57.921875 64.317316 57.94675 64.140625 57.998047 C 63.963934 58.049344 63.804602 58.111451 63.662109 58.185547 C 63.519617 58.259643 63.395563 58.340286 63.292969 58.425781 C 63.190374 58.505577 63.113797 58.573862 63.0625 58.630859 L 63.457031 59.195312 C 63.496929 59.161115 63.552857 59.113478 63.626953 59.050781 C 63.701049 58.982385 63.792096 58.918325 63.900391 58.861328 C 64.008685 58.798631 64.130785 58.744816 64.267578 58.699219 C 64.404371 58.653621 64.555412 58.630859 64.720703 58.630859 C 64.857496 58.630859 64.985775 58.651508 65.105469 58.691406 C 65.230862 58.725604 65.340445 58.781532 65.431641 58.861328 C 65.522836 58.941124 65.593234 59.040462 65.644531 59.160156 C 65.701528 59.27985 65.730469 59.426665 65.730469 59.597656 C 65.730469 59.757248 65.699415 59.908289 65.636719 60.050781 C 65.579722 60.193274 65.499079 60.331957 65.396484 60.46875 C 65.299589 60.599843 65.18578 60.734301 65.054688 60.871094 C 64.929294 61.002187 64.794836 61.136645 64.652344 61.273438 C 64.481353 61.444428 64.30755 61.620344 64.130859 61.802734 C 63.954169 61.985125 63.794836 62.179576 63.652344 62.384766 C 63.509851 62.589955 63.39393 62.809281 63.302734 63.042969 C 63.217239 63.270957 63.173828 63.519223 63.173828 63.787109 L 63.173828 63.880859 C 63.173828 63.915058 63.175941 63.948224 63.181641 63.982422 L 66.773438 63.982422 L 66.773438 63.306641 L 64.046875 63.306641 C 64.046875 63.209746 64.082154 63.095937 64.15625 62.964844 C 64.236046 62.833751 64.333272 62.697179 64.447266 62.554688 C 64.56126 62.412195 64.681247 62.275624 64.806641 62.144531 L 65.148438 61.802734 C 65.319428 61.631743 65.491118 61.457941 65.662109 61.28125 C 65.8331 61.098859 65.986254 60.916766 66.123047 60.734375 C 66.25984 60.546285 66.369423 60.358012 66.449219 60.169922 C 66.534714 59.976132 66.576172 59.777455 66.576172 59.572266 C 66.576172 59.047893 66.420906 58.642407 66.107422 58.357422 C 65.799638 58.066737 65.334158 57.921875 64.712891 57.921875 z M 56.578125 88.490234 C 56.2762 88.490234 56.003425 88.554514 55.759766 88.681641 C 55.516107 88.808767 55.307611 88.994622 55.132812 89.238281 C 54.958015 89.48194 54.821907 89.779871 54.726562 90.134766 C 54.636516 90.48966 54.591797 90.898542 54.591797 91.359375 C 54.591797 92.286338 54.76759 92.998182 55.117188 93.496094 C 55.472081 93.988708 55.958384 94.234375 56.578125 94.234375 C 57.197866 94.234375 57.683606 93.988708 58.033203 93.496094 C 58.388098 92.998182 58.564453 92.286338 58.564453 91.359375 C 58.564453 90.437709 58.388098 89.730896 58.033203 89.238281 C 57.683606 88.74037 57.197866 88.490234 56.578125 88.490234 z M 61.091797 88.490234 C 60.789872 88.490234 60.517095 88.554514 60.273438 88.681641 C 60.029779 88.808767 59.81933 88.994622 59.644531 89.238281 C 59.469732 89.48194 59.335579 89.779871 59.240234 90.134766 C 59.150187 90.48966 59.105469 90.898542 59.105469 91.359375 C 59.105469 92.286338 59.279309 92.998182 59.628906 93.496094 C 59.983801 93.988708 60.472056 94.234375 61.091797 94.234375 C 61.711538 94.234375 62.195324 93.988708 62.544922 93.496094 C 62.899816 92.998182 63.078125 92.286338 63.078125 91.359375 C 63.078125 90.437709 62.899816 89.730896 62.544922 89.238281 C 62.195324 88.74037 61.711538 88.490234 61.091797 88.490234 z M 65.4375 88.490234 C 65.082606 88.490234 64.748066 88.562061 64.435547 88.705078 C 64.128325 88.842798 63.860018 89.021107 63.626953 89.238281 L 64.214844 90.064453 C 64.251922 90.027375 64.306702 89.978188 64.380859 89.919922 C 64.455016 89.856359 64.541936 89.796548 64.642578 89.738281 C 64.748517 89.674718 64.862546 89.6205 64.984375 89.578125 C 65.111501 89.530453 65.247608 89.507813 65.390625 89.507812 C 65.586611 89.507812 65.75039 89.555046 65.882812 89.650391 C 66.015236 89.745735 66.082031 89.909513 66.082031 90.142578 C 66.082031 90.248517 66.057438 90.354999 66.009766 90.460938 C 65.962093 90.561578 65.895298 90.665546 65.810547 90.771484 C 65.725796 90.872126 65.628814 90.976655 65.517578 91.087891 C 65.406343 91.193829 65.287283 91.307858 65.160156 91.429688 C 64.995951 91.588594 64.827705 91.747342 64.658203 91.90625 C 64.493998 92.065158 64.347267 92.238435 64.214844 92.423828 C 64.08242 92.603924 63.973423 92.799841 63.888672 93.011719 C 63.809218 93.223596 63.769531 93.456685 63.769531 93.710938 L 63.769531 93.900391 C 63.769531 93.990438 63.774562 94.064781 63.785156 94.123047 L 67.455078 94.123047 L 67.455078 93.130859 L 65.087891 93.130859 C 65.103781 93.07789 65.143468 93.011095 65.207031 92.931641 C 65.275891 92.84689 65.352749 92.757454 65.4375 92.662109 C 65.522251 92.566765 65.609171 92.47286 65.699219 92.382812 C 65.794564 92.287469 65.883437 92.203063 65.962891 92.128906 C 66.116502 91.985889 66.272733 91.834689 66.431641 91.675781 C 66.590549 91.516873 66.732249 91.353096 66.859375 91.183594 C 66.986501 91.008795 67.090468 90.829924 67.169922 90.644531 C 67.249376 90.459139 67.289062 90.265737 67.289062 90.064453 C 67.289063 89.820794 67.251891 89.602799 67.177734 89.412109 C 67.108874 89.216123 66.997361 89.052345 66.84375 88.919922 C 66.695436 88.782202 66.504549 88.67572 66.271484 88.601562 C 66.038419 88.527406 65.760613 88.490234 65.4375 88.490234 z M 70.236328 88.617188 C 70.119796 88.739016 69.988158 88.855561 69.839844 88.966797 C 69.696827 89.072736 69.545627 89.176702 69.386719 89.277344 C 69.227811 89.372689 69.064033 89.462124 68.894531 89.546875 C 68.730326 89.626329 68.57158 89.698156 68.417969 89.761719 L 68.775391 90.675781 C 68.960783 90.612218 69.15167 90.537876 69.347656 90.453125 C 69.543643 90.363077 69.719998 90.264142 69.878906 90.158203 L 69.878906 94.123047 L 71.0625 94.123047 L 71.0625 88.617188 L 70.236328 88.617188 z M 73.240234 88.617188 C 73.219047 89.062129 73.189422 89.538369 73.152344 90.046875 C 73.115265 90.555381 73.068032 91.056213 73.009766 91.548828 C 73.444114 91.548828 73.803809 91.570906 74.089844 91.613281 C 74.375878 91.655657 74.603936 91.715468 74.773438 91.794922 C 74.942938 91.874376 75.061999 91.975827 75.130859 92.097656 C 75.199719 92.214189 75.234375 92.350295 75.234375 92.503906 C 75.234375 92.699893 75.152486 92.871217 74.988281 93.019531 C 74.824076 93.162548 74.558848 93.234375 74.193359 93.234375 C 73.891434 93.234375 73.631237 93.207266 73.414062 93.154297 C 73.196889 93.096031 73.023048 93.038735 72.890625 92.980469 L 72.675781 93.957031 C 72.739344 93.988813 72.828781 94.020953 72.945312 94.052734 C 73.061845 94.084516 73.19292 94.11414 73.335938 94.140625 C 73.484251 94.172407 73.635452 94.195047 73.789062 94.210938 C 73.94797 94.232124 74.097217 94.242187 74.240234 94.242188 C 74.605723 94.242188 74.92517 94.19747 75.195312 94.107422 C 75.470753 94.017374 75.696857 93.893283 75.876953 93.734375 C 76.057049 93.575467 76.193155 93.387096 76.283203 93.169922 C 76.373251 92.952748 76.417969 92.717143 76.417969 92.462891 C 76.417969 91.91201 76.232113 91.483003 75.861328 91.175781 C 75.49584 90.863262 74.927649 90.679922 74.154297 90.626953 C 74.170188 90.49453 74.182766 90.342768 74.193359 90.167969 C 74.20925 89.987873 74.221828 89.802018 74.232422 89.611328 L 76.21875 89.611328 L 76.21875 88.617188 L 73.240234 88.617188 z M 79.460938 88.617188 C 79.222576 88.855548 78.984456 89.123294 78.746094 89.419922 C 78.507732 89.71655 78.279674 90.021465 78.0625 90.333984 C 77.850623 90.641206 77.657221 90.943606 77.482422 91.240234 C 77.307623 91.531566 77.161454 91.792326 77.044922 92.025391 L 77.044922 92.892578 L 79.421875 92.892578 L 79.421875 94.123047 L 80.582031 94.123047 L 80.582031 92.892578 L 81.169922 92.892578 L 81.169922 91.923828 L 80.582031 91.923828 L 80.582031 88.617188 L 79.460938 88.617188 z M 82.265625 88.617188 C 82.244437 89.062129 82.214813 89.538369 82.177734 90.046875 C 82.140656 90.555381 82.093423 91.056213 82.035156 91.548828 C 82.469505 91.548828 82.8292 91.570906 83.115234 91.613281 C 83.401269 91.655657 83.629326 91.715468 83.798828 91.794922 C 83.96833 91.874376 84.08739 91.975827 84.15625 92.097656 C 84.22511 92.214189 84.259766 92.350295 84.259766 92.503906 C 84.259766 92.699893 84.177877 92.871217 84.013672 93.019531 C 83.849467 93.162548 83.584238 93.234375 83.21875 93.234375 C 82.916825 93.234375 82.65858 93.207266 82.441406 93.154297 C 82.224232 93.096031 82.048439 93.038735 81.916016 92.980469 L 81.701172 93.957031 C 81.764735 93.988813 81.856124 94.020953 81.972656 94.052734 C 82.089189 94.084516 82.218311 94.11414 82.361328 94.140625 C 82.509642 94.172407 82.660842 94.195047 82.814453 94.210938 C 82.973361 94.232124 83.124561 94.242187 83.267578 94.242188 C 83.633066 94.242188 83.95056 94.19747 84.220703 94.107422 C 84.496144 94.017374 84.724201 93.893283 84.904297 93.734375 C 85.084393 93.575467 85.218546 93.387096 85.308594 93.169922 C 85.398642 92.952748 85.443359 92.717143 85.443359 92.462891 C 85.443359 91.91201 85.259457 91.483003 84.888672 91.175781 C 84.523184 90.863262 83.953039 90.679922 83.179688 90.626953 C 83.195577 90.49453 83.208156 90.342768 83.21875 90.167969 C 83.234641 89.987873 83.249172 89.802018 83.259766 89.611328 L 85.246094 89.611328 L 85.246094 88.617188 L 82.265625 88.617188 z M 86.779297 88.617188 C 86.758109 89.062129 86.728485 89.538369 86.691406 90.046875 C 86.654328 90.555381 86.607094 91.056213 86.548828 91.548828 C 86.983177 91.548828 87.342872 91.570906 87.628906 91.613281 C 87.914941 91.655657 88.142998 91.715468 88.3125 91.794922 C 88.482002 91.874376 88.601062 91.975827 88.669922 92.097656 C 88.738782 92.214189 88.773438 92.350295 88.773438 92.503906 C 88.773437 92.699893 88.691549 92.871217 88.527344 93.019531 C 88.363139 93.162548 88.09791 93.234375 87.732422 93.234375 C 87.430497 93.234375 87.170299 93.207266 86.953125 93.154297 C 86.735951 93.096031 86.56211 93.038735 86.429688 92.980469 L 86.214844 93.957031 C 86.278407 93.988813 86.367842 94.020953 86.484375 94.052734 C 86.600908 94.084516 86.731983 94.11414 86.875 94.140625 C 87.023314 94.172407 87.172561 94.195047 87.326172 94.210938 C 87.48508 94.232124 87.63628 94.242187 87.779297 94.242188 C 88.144785 94.242188 88.464231 94.19747 88.734375 94.107422 C 89.009815 94.017374 89.23592 93.893283 89.416016 93.734375 C 89.596111 93.575467 89.732218 93.387096 89.822266 93.169922 C 89.912313 92.952748 89.957031 92.717143 89.957031 92.462891 C 89.957031 91.91201 89.771176 91.483003 89.400391 91.175781 C 89.034902 90.863262 88.466712 90.679922 87.693359 90.626953 C 87.70925 90.49453 87.721828 90.342768 87.732422 90.167969 C 87.748313 89.987873 87.760891 89.802018 87.771484 89.611328 L 89.757812 89.611328 L 89.757812 88.617188 L 86.779297 88.617188 z M 91.291016 88.617188 C 91.269828 89.062129 91.242157 89.538369 91.205078 90.046875 C 91.168 90.555381 91.118813 91.056213 91.060547 91.548828 C 91.494895 91.548828 91.856544 91.570906 92.142578 91.613281 C 92.428612 91.655657 92.65667 91.715468 92.826172 91.794922 C 92.995674 91.874376 93.114734 91.975827 93.183594 92.097656 C 93.252454 92.214189 93.287109 92.350295 93.287109 92.503906 C 93.287109 92.699893 93.203267 92.871217 93.039062 93.019531 C 92.874859 93.162548 92.611582 93.234375 92.246094 93.234375 C 91.944169 93.234375 91.683971 93.207266 91.466797 93.154297 C 91.249623 93.096031 91.07383 93.038735 90.941406 92.980469 L 90.728516 93.957031 C 90.792079 93.988813 90.881514 94.020953 90.998047 94.052734 C 91.114579 94.084516 91.243702 94.11414 91.386719 94.140625 C 91.535033 94.172407 91.686233 94.195047 91.839844 94.210938 C 91.998752 94.232124 92.149952 94.242187 92.292969 94.242188 C 92.658457 94.242188 92.97595 94.19747 93.246094 94.107422 C 93.521534 94.017374 93.749592 93.893283 93.929688 93.734375 C 94.109782 93.575467 94.243937 93.387096 94.333984 93.169922 C 94.424032 92.952748 94.470703 92.717143 94.470703 92.462891 C 94.470703 91.91201 94.284848 91.483003 93.914062 91.175781 C 93.548575 90.863262 92.97843 90.679922 92.205078 90.626953 C 92.220969 90.49453 92.2355 90.342768 92.246094 90.167969 C 92.261985 89.987873 92.274562 89.802018 92.285156 89.611328 L 94.271484 89.611328 L 94.271484 88.617188 L 91.291016 88.617188 z M 56.578125 89.507812 C 56.726439 89.507813 56.85053 89.55253 56.951172 89.642578 C 57.051814 89.732626 57.131187 89.859233 57.189453 90.023438 C 57.247719 90.187641 57.291875 90.38356 57.318359 90.611328 C 57.344844 90.833799 57.357422 91.083935 57.357422 91.359375 C 57.357422 91.634815 57.344844 91.885513 57.318359 92.113281 C 57.291875 92.341049 57.247719 92.536967 57.189453 92.701172 C 57.131187 92.865377 57.051814 92.991983 56.951172 93.082031 C 56.85053 93.172079 56.726439 93.21875 56.578125 93.21875 C 56.429811 93.21875 56.30572 93.172079 56.205078 93.082031 C 56.109733 92.991983 56.03036 92.865377 55.966797 92.701172 C 55.908531 92.536967 55.866328 92.341049 55.839844 92.113281 C 55.813359 91.885513 55.800781 91.634815 55.800781 91.359375 C 55.800781 91.083935 55.813359 90.833799 55.839844 90.611328 C 55.866328 90.38356 55.908531 90.187641 55.966797 90.023438 C 56.03036 89.859233 56.109733 89.732626 56.205078 89.642578 C 56.30572 89.55253 56.429811 89.507813 56.578125 89.507812 z M 61.091797 89.507812 C 61.240111 89.507813 61.364202 89.55253 61.464844 89.642578 C 61.565485 89.732626 61.644859 89.859233 61.703125 90.023438 C 61.761391 90.187641 61.803593 90.38356 61.830078 90.611328 C 61.856563 90.833799 61.869141 91.083935 61.869141 91.359375 C 61.869141 91.634815 61.856563 91.885513 61.830078 92.113281 C 61.803593 92.341049 61.761391 92.536967 61.703125 92.701172 C 61.644859 92.865377 61.565485 92.991983 61.464844 93.082031 C 61.364202 93.172079 61.240111 93.21875 61.091797 93.21875 C 60.943483 93.21875 60.819392 93.172079 60.71875 93.082031 C 60.623405 92.991983 60.544032 92.865377 60.480469 92.701172 C 60.422202 92.536967 60.378047 92.341049 60.351562 92.113281 C 60.325079 91.885513 60.3125 91.634815 60.3125 91.359375 C 60.3125 91.083935 60.325079 90.833799 60.351562 90.611328 C 60.378047 90.38356 60.422202 90.187641 60.480469 90.023438 C 60.544032 89.859233 60.623405 89.732626 60.71875 89.642578 C 60.819392 89.55253 60.943483 89.507813 61.091797 89.507812 z M 79.421875 90.064453 L 79.421875 91.923828 L 78.173828 91.923828 C 78.332736 91.590121 78.528654 91.263128 78.761719 90.945312 C 78.994784 90.627498 79.215295 90.334597 79.421875 90.064453 z "
       transform="matrix(0.26458333,0,0,0.26458333,-5.1407542,46.445019)" />
  </g>
</svg>
