<?xml version="1.0" encoding="UTF-8" standalone="no"?>
<!-- Created with Inkscape (http://www.inkscape.org/) -->

<svg
   width="26.586689mm"
   height="26.586689mm"
   viewBox="0 0 26.586689 26.586688"
   version="1.1"
   id="svg5"
   inkscape:version="1.1.1 (1:1.1+202109281949+c3084ef5ed)"
   sodipodi:docname="esp32.svg"
   xmlns:inkscape="http://www.inkscape.org/namespaces/inkscape"
   xmlns:sodipodi="http://sodipodi.sourceforge.net/DTD/sodipodi-0.dtd"
   xmlns="http://www.w3.org/2000/svg"
   xmlns:svg="http://www.w3.org/2000/svg">
  <sodipodi:namedview
     id="namedview7"
     pagecolor="#ffffff"
     bordercolor="#666666"
     borderopacity="1.0"
     inkscape:pageshadow="2"
     inkscape:pageopacity="0.0"
     inkscape:pagecheckerboard="0"
     inkscape:document-units="mm"
     showgrid="false"
     inkscape:zoom="3.7543721"
     inkscape:cx="39.287528"
     inkscape:cy="36.623967"
     inkscape:window-width="1860"
     inkscape:window-height="1016"
     inkscape:window-x="60"
     inkscape:window-y="27"
     inkscape:window-maximized="1"
     inkscape:current-layer="layer1" />
  <defs
     id="defs2" />
  <g
     inkscape:label="Layer 1"
     inkscape:groupmode="layer"
     id="layer1"
     transform="translate(1.2620032,-50.456589)">
    <rect
       style="opacity:1;fill:#f9f9f9;stroke-width:1.746;stroke-linecap:round;stroke-linejoin:round;fill-opacity:1"
       id="rect851"
       width="26.586689"
       height="26.586689"
       x="-1.2620032"
       y="50.456589"
       ry="2.5778265" />
    <path
       style="fill:#ff0000;stroke-width:0.0276069"
       d="m 11.652932,73.836605 c -1.9280948,-0.22813 -3.6374778,-0.884053 -5.2012428,-1.995816 -1.198003,-0.851726 -2.367684,-2.140971 -3.108477,-3.426224 -0.751354,-1.30358 -1.221868,-2.733453 -1.412612,-4.292878 -0.0684,-0.559219 -0.06853,-1.861397 -2.09e-4,-2.443214 0.190271,-1.620982 0.702139,-3.128744 1.523175,-4.486661 0.362248,-0.599125 0.907461,-1.320444 1.346416,-1.781315 l 0.259951,-0.272929 0.270731,0.26336 c 0.207987,0.202326 0.264986,0.273151 0.245946,0.305604 -0.01363,0.02323 -0.127264,0.153261 -0.252516,0.288951 -1.413872,1.531691 -2.360363,3.590009 -2.619597,5.696794 -0.0684,0.555876 -0.06877,1.807875 -7.3e-4,2.383468 0.109745,0.928018 0.365346,1.893584 0.735288,2.777636 0.340366,0.813374 0.831026,1.646245 1.388131,2.356283 0.261161,0.332853 0.328651,0.40871 0.738229,0.829754 1.468611,1.509721 3.325449,2.509245 5.4111408,2.912779 0.624031,0.120736 0.888795,0.145587 1.71163,0.160655 0.718562,0.01316 0.872884,0.008 1.311329,-0.04389 1.264324,-0.14962 2.352508,-0.467987 3.421913,-1.001139 0.979073,-0.488117 1.700498,-0.995492 2.617259,-1.840706 l 0.07607,-0.07014 0.26405,0.26577 c 0.288672,0.290554 0.289518,0.293371 0.130768,0.435566 -0.607272,0.543948 -0.858855,0.746963 -1.347569,1.087417 -0.453126,0.315663 -0.779683,0.509921 -1.283722,0.763643 -1.212746,0.610472 -2.394276,0.963768 -3.773943,1.128473 -0.64015,0.07642 -1.800006,0.07583 -2.45142,-0.0012 z M 11.40447,72.073998 c -0.242941,-0.04186 -0.608018,-0.116776 -0.811283,-0.16647 l -0.369572,-0.09035 -0.4379308,-0.383815 c -0.240862,-0.211097 -0.437931,-0.398151 -0.437931,-0.415674 0,-0.01752 0.06729,-0.132103 0.14953,-0.254624 0.298452,-0.444625 0.4994278,-0.948978 0.5692718,-1.428602 0.0412,-0.282942 0.02277,-0.800465 -0.03868,-1.085967 -0.1574388,-0.731507 -0.6282238,-1.466037 -1.2308538,-1.920407 -0.339599,-0.25605 -0.899694,-0.506798 -1.285132,-0.575338 -0.0911,-0.0162 -0.389258,-0.05405 -0.662567,-0.08411 -0.577548,-0.06352 -0.872955,-0.140622 -1.269919,-0.331434 -0.99174,-0.476708 -1.644591,-1.285224 -1.906599,-2.361205 -0.05223,-0.214498 -0.06719,-0.349955 -0.06708,-0.607352 1.67e-4,-0.356633 0.07506,-0.937777 0.166763,-1.293864 0.110947,-0.430805 0.394909,-0.906399 0.779295,-1.3052 0.499148,-0.51787 1.077049,-0.838072 1.842026,-1.020626 0.308477,-0.07362 1.277191,-0.066 1.813169,0.01426 1.217784,0.18235 2.2426938,0.49683 3.2395608,0.994018 2.61848,1.305968 4.517069,3.61929 5.298704,6.456171 0.286493,1.039804 0.404922,2.201018 0.338308,3.317179 -0.01774,0.297217 -0.05151,0.658415 -0.07505,0.802662 -0.08263,0.506263 -0.158638,0.897687 -0.183626,0.945574 -0.03703,0.07097 -0.228506,0.158726 -0.754832,0.345962 -0.49118,0.174732 -0.939992,0.309665 -1.030008,0.309665 -0.02912,0 -0.163345,-0.04164 -0.298269,-0.09253 -0.625116,-0.235778 -0.936961,-0.357939 -0.95364,-0.373578 -0.01,-0.0094 0.01878,-0.128825 0.06391,-0.26548 0.09755,-0.295359 0.188847,-0.67351 0.276599,-1.145687 0.0581,-0.312626 0.06402,-0.421694 0.06294,-1.159491 -0.0013,-0.86146 -0.02777,-1.113431 -0.181555,-1.725433 -0.526241,-2.094256 -1.923219,-3.858999 -3.799742,-4.800055 -0.9598608,-0.48136 -2.1232978,-0.789621 -2.9822478,-0.790168 -0.394693,-2.51e-4 -0.513166,0.05293 -0.672759,0.301998 -0.14692,0.229291 -0.08735,0.594864 0.122897,0.754167 0.146516,0.111017 0.193916,0.127205 0.463955,0.158442 1.027484,0.118855 1.410818,0.20328 2.012377,0.443205 1.3674108,0.545377 2.5247548,1.615309 3.1872348,2.946508 0.657985,1.322168 0.814098,2.89432 0.428232,4.312538 -0.07822,0.287476 -0.153184,0.516965 -0.220953,0.67637 -0.106073,0.249503 -0.285115,0.615157 -0.384707,0.785683 -0.135733,0.232406 -0.09899,0.226938 -0.759842,0.113057 z M 6.5022552,70.458764 c -0.438381,-0.111669 -0.865142,-0.448279 -1.04432,-0.823714 -0.30486,-0.638776 -0.195862,-1.342339 0.283147,-1.827675 0.366088,-0.370923 0.790258,-0.518442 1.318214,-0.458451 0.632627,0.07188 1.103104,0.455814 1.311684,1.070394 0.09542,0.28116 0.101073,0.672212 0.0137,0.947686 -0.118917,0.37491 -0.437433,0.768094 -0.765239,0.944628 -0.286983,0.154552 -0.815044,0.224096 -1.117183,0.147132 z m 12.0731158,-1.416006 -0.255364,-0.0091 V 68.7707 c 0,-1.490724 -0.376746,-3.154056 -1.046231,-4.619108 -0.169195,-0.370256 -0.565624,-1.11224 -0.694468,-1.299815 -0.02607,-0.03796 -0.125184,-0.187037 -0.220243,-0.331283 -0.612184,-0.928947 -1.527199,-1.908728 -2.483775,-2.659583 -0.245118,-0.192403 -1.013701,-0.702853 -1.325132,-0.880079 -1.591186,-0.905496 -3.3955648,-1.431036 -5.1486928,-1.499599 -0.212574,-0.0083 -0.451719,-0.0217 -0.531434,-0.02975 l -0.144936,-0.01464 0.0016,-0.764106 0.0016,-0.764106 0.169391,-0.138034 c 0.449423,-0.366231 0.869137,-0.656731 1.365994,-0.945455 l 0.280404,-0.162943 0.339751,0.04724 c 2.7172588,0.377789 5.3078238,1.55956 7.4078318,3.379325 0.407626,0.353228 1.245654,1.201534 1.55534,1.574413 1.2901,1.553355 2.174602,3.186466 2.764213,5.103739 0.17189,0.558942 0.381248,1.509828 0.458816,2.083899 l 0.04982,0.368725 -0.104711,0.20341 c -0.189715,0.368536 -0.628431,1.004518 -0.99351,1.440237 l -0.167702,0.20015 -0.511568,-0.0057 c -0.281362,-0.0032 -0.626482,-0.0098 -0.766932,-0.01484 z m 2.977506,-5.286863 c -0.01286,-0.03416 -0.05519,-0.149078 -0.09407,-0.255364 -0.10841,-0.296362 -0.245924,-0.625809 -0.432127,-1.03526 -1.670628,-3.673645 -4.747654,-6.580301 -8.517931,-8.046307 -0.495162,-0.192536 -0.538335,-0.213069 -0.538335,-0.256033 0,-0.06946 0.142477,-0.461331 0.183341,-0.504271 0.06004,-0.0631 1.031196,-0.07295 1.603256,-0.01627 0.913022,0.09047 1.924274,0.339703 2.712863,0.668623 0.23231,0.0969 0.924857,0.444837 1.146158,0.575838 1.318957,0.780767 2.478758,1.937819 3.264651,3.25691 0.540838,0.907778 0.906304,1.858119 1.136369,2.954965 0.101869,0.485662 0.144115,0.942818 0.159525,1.726238 0.01302,0.662173 0.0095,0.764527 -0.02748,0.795205 -0.04101,0.03404 -0.493662,0.197839 -0.546705,0.197839 -0.01437,0 -0.03666,-0.02795 -0.04952,-0.06211 z"
       id="path25947" />
  </g>
</svg>
