<?xml version="1.0" encoding="UTF-8" standalone="no"?>
<!-- Created with Inkscape (http://www.inkscape.org/) -->

<svg
   width="26.586689mm"
   height="26.586689mm"
   viewBox="0 0 26.586689 26.586688"
   version="1.1"
   id="svg5"
   inkscape:version="1.1.1 (1:1.1+202109281949+c3084ef5ed)"
   sodipodi:docname="js.svg"
   xmlns:inkscape="http://www.inkscape.org/namespaces/inkscape"
   xmlns:sodipodi="http://sodipodi.sourceforge.net/DTD/sodipodi-0.dtd"
   xmlns="http://www.w3.org/2000/svg"
   xmlns:svg="http://www.w3.org/2000/svg">
  <sodipodi:namedview
     id="namedview7"
     pagecolor="#ffffff"
     bordercolor="#666666"
     borderopacity="1.0"
     inkscape:pageshadow="2"
     inkscape:pageopacity="0.0"
     inkscape:pagecheckerboard="0"
     inkscape:document-units="mm"
     showgrid="false"
     inkscape:zoom="3.7543722"
     inkscape:cx="-29.965063"
     inkscape:cy="96.554093"
     inkscape:window-width="1860"
     inkscape:window-height="1016"
     inkscape:window-x="60"
     inkscape:window-y="27"
     inkscape:window-maximized="1"
     inkscape:current-layer="layer1" />
  <defs
     id="defs2" />
  <g
     inkscape:label="Layer 1"
     inkscape:groupmode="layer"
     id="layer1"
     transform="translate(1.2620032,-50.456589)">
    <rect
       style="opacity:1;fill:#f7df1e;stroke-width:1.746;stroke-linecap:round;stroke-linejoin:round;fill-opacity:1"
       id="rect851"
       width="26.586689"
       height="26.586689"
       x="-1.2620032"
       y="50.456589"
       ry="2.5778265" />
    <path
       style="fill:#000000;stroke-width:0.0109307"
       d="M 9.5857732,73.512757 C 8.8261262,73.484124 8.1766052,73.264736 7.6237215,72.850015 7.4727908,72.736798 7.1684932,72.436734 7.0556892,72.289878 6.9047156,72.093329 6.7143169,71.787466 6.651022,71.639804 l -0.01969,-0.04595 0.3238088,-0.195789 c 0.1780952,-0.107684 0.4222884,-0.25534 0.5426527,-0.328122 0.1203657,-0.07279 0.358005,-0.216657 0.5280931,-0.319722 0.1700866,-0.103062 0.3127326,-0.187311 0.3169886,-0.187214 0.0043,1.09e-4 0.02987,0.0403 0.05692,0.08933 0.07218,0.130852 0.209606,0.348142 0.280921,0.444196 0.08948,0.120529 0.267959,0.295095 0.368558,0.360488 0.09889,0.06429 0.211111,0.113646 0.332362,0.146183 0.10641,0.02856 0.434213,0.0403 0.572582,0.02051 0.5613238,-0.08029 0.8106128,-0.398538 0.8609868,-1.099146 0.0071,-0.09804 0.01099,-1.448336 0.01111,-3.757468 l 9.6e-5,-3.604437 1.052075,0.0028 1.052075,0.0028 0.0032,3.503275 c 0.0033,3.636667 0,3.974908 -0.04115,4.290281 -0.09365,0.716829 -0.344047,1.282811 -0.753718,1.703645 -0.143461,0.147372 -0.248782,0.235874 -0.40458,0.339964 -0.453061,0.302701 -1.067654,0.484918 -1.70035,0.504127 -0.09619,0.0029 -0.1921068,0.0066 -0.2131468,0.008 -0.02104,0.0015 -0.126796,-6.77e-4 -0.23501,-0.0048 z m 8.0449618,0.0049 c -1.016668,-0.04995 -1.874898,-0.353014 -2.568704,-0.907079 -0.154845,-0.123663 -0.433521,-0.401967 -0.556469,-0.55574 -0.117246,-0.146636 -0.299461,-0.419535 -0.381507,-0.571368 l -0.06068,-0.112282 0.02385,-0.01512 c 0.01311,-0.0083 0.161568,-0.09493 0.3299,-0.192462 0.298443,-0.172924 0.388476,-0.225167 1.011085,-0.586692 0.165327,-0.096 0.311242,-0.180205 0.324256,-0.187123 0.02217,-0.01175 0.0295,-0.0038 0.115832,0.126672 0.128123,0.193584 0.232255,0.324787 0.373484,0.470577 0.367516,0.379388 0.753509,0.572451 1.296049,0.648244 0.135687,0.01896 0.494662,0.01612 0.63641,-0.0051 0.617947,-0.0922 1.016801,-0.41178 1.091086,-0.874231 0.01972,-0.122765 0.0078,-0.304597 -0.02787,-0.427686 -0.0822,-0.283083 -0.2624,-0.482355 -0.628371,-0.694879 -0.196329,-0.113937 -0.686976,-0.340919 -1.237948,-0.572629 -0.56961,-0.239548 -0.945321,-0.432781 -1.298018,-0.667584 -0.806182,-0.536708 -1.229802,-1.189934 -1.350435,-2.082387 -0.02396,-0.177234 -0.03298,-0.586797 -0.01676,-0.76088 0.112346,-1.20574 0.937654,-2.114542 2.186992,-2.408253 0.519921,-0.122235 1.198091,-0.12846 1.759835,-0.01617 0.646501,0.129237 1.184412,0.429046 1.609074,0.89683 0.181516,0.199949 0.511725,0.669573 0.497266,0.707212 -0.0027,0.0069 -0.215785,0.147949 -0.473553,0.313241 -0.25777,0.165295 -0.623234,0.399816 -0.812141,0.521159 l -0.343471,0.220623 -0.06407,-0.105096 c -0.100347,-0.16459 -0.180599,-0.271229 -0.291332,-0.387143 -0.251303,-0.263063 -0.49578,-0.375447 -0.875605,-0.402507 -0.438319,-0.03122 -0.787439,0.111082 -0.979086,0.399118 -0.111285,0.167243 -0.155024,0.337547 -0.143984,0.560565 0.01716,0.346793 0.159819,0.583325 0.481639,0.798602 0.209108,0.139881 0.430687,0.248087 1.083746,0.529238 0.25851,0.111297 0.539654,0.234579 0.624761,0.273971 1.15552,0.534825 1.790025,1.056252 2.13029,1.750644 0.193935,0.395773 0.288871,0.84831 0.288929,1.377262 1.09e-4,0.706824 -0.19709,1.302391 -0.593469,1.792628 -0.15361,0.189983 -0.434682,0.437936 -0.652417,0.575545 -0.652603,0.412442 -1.553361,0.617213 -2.508587,0.570284 z"
       id="path3736" />
  </g>
</svg>
