<?xml version="1.0" encoding="UTF-8" standalone="no"?>
<!-- Created with Inkscape (http://www.inkscape.org/) -->

<svg
   width="26.586689mm"
   height="26.586689mm"
   viewBox="0 0 26.586689 26.586688"
   version="1.1"
   id="svg5"
   inkscape:version="1.1.1 (1:1.1+202109281949+c3084ef5ed)"
   sodipodi:docname="ros.svg"
   xmlns:inkscape="http://www.inkscape.org/namespaces/inkscape"
   xmlns:sodipodi="http://sodipodi.sourceforge.net/DTD/sodipodi-0.dtd"
   xmlns="http://www.w3.org/2000/svg"
   xmlns:svg="http://www.w3.org/2000/svg">
  <sodipodi:namedview
     id="namedview7"
     pagecolor="#ffffff"
     bordercolor="#666666"
     borderopacity="1.0"
     inkscape:pageshadow="2"
     inkscape:pageopacity="0.0"
     inkscape:pagecheckerboard="0"
     inkscape:document-units="mm"
     showgrid="false"
     inkscape:zoom="5.309484"
     inkscape:cx="48.874806"
     inkscape:cy="45.107962"
     inkscape:window-width="1860"
     inkscape:window-height="1016"
     inkscape:window-x="60"
     inkscape:window-y="27"
     inkscape:window-maximized="1"
     inkscape:current-layer="layer1" />
  <defs
     id="defs2" />
  <g
     inkscape:label="Layer 1"
     inkscape:groupmode="layer"
     id="layer1"
     transform="translate(1.2620032,-50.456589)">
    <rect
       style="opacity:1;fill:#f9f9f9;stroke-width:1.746;stroke-linecap:round;stroke-linejoin:round;fill-opacity:1"
       id="rect851"
       width="26.586689"
       height="26.586689"
       x="-1.2620032"
       y="50.456589"
       ry="2.5778265" />
    <path
       style="fill:#3e4f6e;fill-opacity:1;stroke-width:0.0351226"
       d="m 15.461432,66.993246 c -0.392327,-0.105741 -0.675928,-0.270418 -0.969456,-0.562931 -0.54821,-0.546316 -0.793146,-1.192697 -0.83182,-2.195165 -0.04886,-1.266282 0.377661,-2.268627 1.196741,-2.812465 0.503146,-0.334069 1.269167,-0.442208 1.934698,-0.273119 0.589109,0.149672 1.15929,0.624489 1.44885,1.206523 0.30585,0.614781 0.437382,1.370225 0.364219,2.091874 -0.11472,1.131564 -0.617251,1.995982 -1.374035,2.363509 -0.164198,0.07974 -0.392743,0.16885 -0.507877,0.198019 -0.298261,0.07556 -0.951924,0.06714 -1.26132,-0.01624 z m 1.317777,-0.905439 c 0.428392,-0.210896 0.731588,-0.636703 0.894035,-1.255572 0.04919,-0.187392 0.06427,-0.371143 0.06341,-0.772697 -0.001,-0.472867 -0.01102,-0.559128 -0.09764,-0.841999 -0.132509,-0.432721 -0.278539,-0.690735 -0.514666,-0.909349 -0.297568,-0.275496 -0.62783,-0.407862 -1.017638,-0.407862 -0.581127,0 -1.040695,0.307204 -1.332942,0.891024 -0.190292,0.380143 -0.252857,0.699207 -0.252122,1.285746 9.59e-4,0.744962 0.168356,1.264428 0.53781,1.668671 0.33088,0.362035 0.613262,0.477249 1.137094,0.463945 0.316989,-0.008 0.376815,-0.02056 0.582666,-0.121907 z m 4.227104,0.953427 c -0.659631,-0.164113 -1.004308,-0.344008 -1.431712,-0.74724 l -0.132173,-0.124698 0.28945,-0.290962 c 0.159198,-0.160029 0.303054,-0.290961 0.319681,-0.290961 0.01663,0 0.111807,0.07199 0.211511,0.159978 0.24375,0.215109 0.60781,0.385197 0.980843,0.458248 0.261028,0.05111 0.356164,0.05433 0.625568,0.02117 0.642773,-0.07914 0.945648,-0.346743 0.945648,-0.835521 0,-0.197826 -0.04997,-0.322523 -0.186548,-0.465556 -0.166942,-0.174827 -0.382473,-0.272 -1.258828,-0.567542 -0.444298,-0.149835 -0.884491,-0.321525 -0.996905,-0.388827 -0.232805,-0.139377 -0.485096,-0.37824 -0.567278,-0.537082 -0.150993,-0.291843 -0.196361,-0.816612 -0.101428,-1.173226 0.143343,-0.53847 0.645662,-0.982569 1.284609,-1.135721 0.277828,-0.06659 0.982229,-0.05654 1.264415,0.01803 0.319315,0.0844 0.750275,0.303472 1.011998,0.514446 l 0.221739,0.178741 -0.298588,0.295912 c -0.164221,0.162749 -0.307432,0.295909 -0.318244,0.295909 -0.01082,0 -0.07896,-0.05622 -0.151449,-0.124926 -0.290134,-0.275019 -0.770541,-0.421108 -1.30134,-0.395731 -0.247528,0.01184 -0.350263,0.03424 -0.501616,0.10939 -0.428035,0.212533 -0.545369,0.688501 -0.250253,1.01516 0.169886,0.188043 0.368952,0.282246 1.112028,0.526236 1.111812,0.365065 1.521794,0.61619 1.744485,1.068543 0.09888,0.20085 0.114696,0.273039 0.128671,0.587296 0.02525,0.567621 -0.0902,0.953456 -0.379045,1.266816 -0.196902,0.213611 -0.419081,0.349696 -0.754967,0.462411 -0.251029,0.08424 -0.342756,0.09551 -0.860504,0.105736 -0.318738,0.0063 -0.611135,0.0036 -0.649769,-0.006 z M 8.2392312,64.077098 v -2.915179 h 1.4519717 c 1.3316571,0 1.4744811,0.0058 1.7236261,0.06948 0.662126,0.169343 1.086754,0.597371 1.218029,1.227778 0.05179,0.248683 0.01979,0.880298 -0.055,1.08557 -0.08091,0.222056 -0.177873,0.402245 -0.285001,0.529558 -0.125186,0.148776 -0.446664,0.362716 -0.664293,0.442082 -0.09659,0.03523 -0.188552,0.07516 -0.204367,0.08875 -0.01581,0.01359 0.233119,0.548258 0.553182,1.188158 0.320064,0.639901 0.581935,1.17145 0.581935,1.181222 0,0.0098 -0.217512,0.01776 -0.483362,0.01776 h -0.48336 L 11.01392,65.83323 10.435247,64.674183 H 9.7587114 9.0821748 v 1.159047 1.159047 H 8.660703 8.2392312 Z m 2.9741498,-0.267363 c 0.237988,-0.08079 0.382633,-0.204276 0.48543,-0.414383 0.1628,-0.332749 0.148427,-0.748147 -0.03596,-1.039263 -0.104591,-0.165135 -0.180277,-0.228389 -0.386796,-0.323262 -0.168462,-0.0774 -0.208026,-0.08009 -1.175327,-0.08037 l -1.0009941,-2.66e-4 -0.00935,0.957092 -0.00935,0.957092 h 0.9827701 c 0.811612,0 1.01182,-0.0099 1.149564,-0.05663 z M 0.70266388,66.820307 C 0.34862916,66.659511 0.23628639,66.234575 0.45888309,65.898208 c 0.2378109,-0.359356 0.78330321,-0.357555 1.02215461,0.0034 0.2305829,0.348435 0.1053,0.77229 -0.2752736,0.931303 -0.1701602,0.0711 -0.32752248,0.06717 -0.50310022,-0.01259 z m 2.18036392,-0.0035 C 2.24092,66.496794 2.6243118,65.4902 3.3243441,65.658135 c 0.1998493,0.04795 0.4311964,0.270849 0.4714855,0.454281 0.064099,0.291841 -0.09634,0.617708 -0.3579431,0.727011 -0.162485,0.0679 -0.3920244,0.05853 -0.5548587,-0.02262 z m 2.224334,-10e-4 C 4.7438472,66.62375 4.6759752,66.140921 4.969209,65.832982 c 0.2771258,-0.291023 0.7176056,-0.253686 0.9662592,0.0819 0.1102423,0.148782 0.1053864,0.558548 -0.00851,0.718234 C 5.755399,66.873647 5.376706,66.958041 5.1073651,66.815765 Z M 0.7036831,64.624835 C 0.4483724,64.51363 0.29314481,64.185292 0.36639718,63.911409 0.44918967,63.601856 0.64757235,63.44878 0.96884432,63.44655 c 0.57590668,-0.004 0.84080478,0.681042 0.41610828,1.076078 -0.163751,0.152316 -0.46311816,0.197229 -0.6812695,0.10221 z m 2.1800603,-0.02891 C 2.4660978,64.353402 2.4898205,63.7084 2.9246213,63.484462 c 0.1388086,-0.07149 0.4782307,-0.04907 0.6109256,0.04035 0.1914636,0.129028 0.27823,0.28755 0.27823,0.508328 0,0.384224 -0.2076086,0.612557 -0.5749591,0.63235 -0.1749661,0.0095 -0.2414853,-0.0037 -0.3550758,-0.06956 z m 2.2406765,0.01009 C 4.962726,64.53257 4.8125716,64.338349 4.775951,64.155246 4.7191853,63.871418 4.9397061,63.52007 5.2223896,63.443951 5.856177,63.273291 6.3055097,64.059527 5.8288751,64.505175 5.6350855,64.686367 5.381422,64.722666 5.1244199,64.605985 Z M 0.77566938,62.437602 c -0.11428712,-0.03159 -0.25363599,-0.145 -0.32739951,-0.266478 -0.22313278,-0.36746 -0.0445858,-0.832727 0.35851376,-0.934229 0.39367107,-0.09912 0.79426777,0.202358 0.79426777,0.597755 0,0.161186 -0.1272829,0.40248 -0.2695494,0.510992 -0.1227325,0.09362 -0.38989482,0.137814 -0.55583262,0.09196 z m 2.12491992,-0.05496 c -0.4145001,-0.221465 -0.4324835,-0.852623 -0.030728,-1.078423 0.4140552,-0.232712 0.9054725,0.02197 0.9350714,0.48462 0.031981,0.499888 -0.4669534,0.827495 -0.9043428,0.593801 z m 2.2186374,0.0055 C 4.6945716,62.172311 4.6578805,61.550028 5.0564217,61.32293 c 0.210538,-0.11997 0.3208256,-0.135827 0.5272621,-0.07581 0.2038314,0.05925 0.3078482,0.151476 0.3884615,0.344411 0.073661,0.176295 0.068335,0.353623 -0.015563,0.518072 -0.1606199,0.314874 -0.5264186,0.436538 -0.8373574,0.278535 z"
       id="path9159" />
  </g>
</svg>
